<?xml version="1.0" standalone="no"?>
<!DOCTYPE svg PUBLIC "-//W3C//DTD SVG 20010904//EN"
 "http://www.w3.org/TR/2001/REC-SVG-20010904/DTD/svg10.dtd">
<svg version="1.0" xmlns="http://www.w3.org/2000/svg"
 width="288.000000pt" height="288.000000pt" viewBox="0 0 288.000000 288.000000"
 preserveAspectRatio="xMidYMid meet">

<g transform="translate(0.000000,288.000000) scale(0.100000,-0.100000)"
fill="#FF0000" stroke="none">
<path d="M1490 2417 c-30 -13 -82 -37 -114 -54 l-59 -30 -91 41 c-82 37 -99
41 -172 41 -78 0 -85 -2 -197 -57 l-117 -57 -82 25 c-108 33 -208 30 -283 -8
-73 -38 -188 -161 -228 -244 l-32 -69 0 -380 0 -380 32 -157 c34 -167 46 -200
93 -248 57 -58 99 -70 255 -70 118 0 147 4 183 20 l44 20 31 -32 c60 -60 93
-68 282 -68 148 0 176 3 214 20 l44 20 42 -39 c24 -22 60 -45 82 -51 42 -13
367 -10 394 3 15 7 17 -3 21 -85 4 -81 9 -103 41 -173 46 -97 62 -115 101
-115 53 0 628 197 674 231 48 35 98 107 113 162 6 24 9 149 7 330 l-3 292 -31
65 c-18 36 -70 111 -117 166 l-86 101 -3 214 -3 214 -32 68 c-39 82 -140 191
-216 233 -47 26 -61 29 -142 29 -77 -1 -101 -5 -165 -32 l-74 -30 -95 50 c-88
47 -101 51 -175 54 -68 3 -90 0 -136 -20z m272 -182 c57 -32 111 -55 128 -55
16 0 68 16 116 35 88 36 142 43 189 25 41 -15 128 -104 156 -157 l24 -48 3
-389 c2 -360 1 -398 -18 -500 -12 -61 -26 -138 -32 -171 -8 -42 -20 -68 -39
-87 -27 -27 -30 -28 -144 -28 -114 0 -117 1 -144 28 l-28 27 -6 259 c-4 143
-7 342 -7 443 l0 183 -75 0 -75 0 0 -471 0 -471 -29 -29 -29 -29 -147 0 -147
0 -29 29 -29 29 0 471 0 471 -80 0 -80 0 0 -441 0 -441 -29 -29 -29 -29 -147
0 -147 0 -27 28 -28 27 -6 310 c-4 171 -7 370 -7 443 l0 132 -75 0 -75 0 0
-411 0 -411 -29 -29 c-29 -29 -31 -29 -143 -29 -118 0 -146 8 -167 48 -5 9
-24 94 -42 187 -33 169 -33 171 -34 475 0 362 2 371 95 473 98 107 141 116
305 67 l100 -30 137 66 c162 78 166 78 308 15 51 -22 107 -41 124 -40 17 0 78
24 136 54 144 74 169 74 302 0z m812 -885 c51 -77 59 -140 53 -387 -7 -246
-13 -274 -68 -315 -29 -22 -502 -188 -534 -188 -33 0 -59 162 -35 224 9 25 10
25 93 19 185 -13 291 23 350 119 38 61 86 295 94 456 3 61 9 112 13 112 4 0
19 -18 34 -40z"/>
</g>
</svg>
