<?xml version="1.0" encoding="utf-8"?>
<!-- Generator: Adobe Illustrator 25.2.0, SVG Export Plug-In . SVG Version: 6.00 Build 0)  -->
<svg version="1.1" id="Livello_1" xmlns="http://www.w3.org/2000/svg" xmlns:xlink="http://www.w3.org/1999/xlink" x="0px" y="0px"
	 viewBox="0 0 128 128" style="enable-background:new 0 0 128 128;" xml:space="preserve">
<style type="text/css">
	.st0{display:none;}
	.st1{display:inline;fill:url(#SVGID_1_);}
	.st2{display:inline;}
	.st3{fill:url(#SVGID_2_);}
	.st4{fill:url(#SVGID_3_);}
	.st5{fill:url(#SVGID_4_);}
	.st6{fill:url(#SVGID_5_);}
	.st7{fill:url(#SVGID_6_);}
	.st8{fill:url(#SVGID_7_);}
	.st9{fill:url(#SVGID_8_);}
	.st10{fill:url(#SVGID_9_);}
	.st11{fill:url(#SVGID_10_);}
	.st12{fill:url(#SVGID_11_);}
	.st13{fill:url(#SVGID_12_);}
	.st14{fill:url(#SVGID_13_);}
	.st15{fill:url(#SVGID_14_);}
	.st16{display:inline;fill:url(#SVGID_15_);}
	.st17{fill:#FF8A00;}
	.st18{display:inline;filter:url(#Adobe_OpacityMaskFilter);}
	.st19{filter:url(#Adobe_OpacityMaskFilter_1_);}
	.st20{mask:url(#SVGID_16_);fill:url(#SVGID_17_);}
	.st21{display:inline;fill:url(#SVGID_18_);}
	.st22{display:inline;fill:url(#SVGID_19_);}
	.st23{fill:url(#SVGID_20_);}
	.st24{fill:url(#SVGID_21_);}
	.st25{fill:url(#SVGID_22_);}
	.st26{fill:url(#SVGID_23_);}
	.st27{fill:url(#SVGID_24_);}
	.st28{fill:url(#SVGID_25_);}
	.st29{fill:url(#SVGID_26_);}
	.st30{fill:url(#SVGID_27_);}
	.st31{fill:url(#SVGID_28_);}
	.st32{fill:url(#SVGID_29_);}
	.st33{fill:url(#SVGID_30_);}
	.st34{fill:url(#SVGID_31_);}
	.st35{fill:url(#SVGID_32_);}
	.st36{fill:url(#SVGID_33_);}
	.st37{fill:url(#SVGID_34_);}
	.st38{fill:url(#SVGID_35_);}
	.st39{fill:url(#SVGID_36_);}
	.st40{fill:url(#SVGID_37_);}
	.st41{fill:url(#SVGID_38_);}
	.st42{fill:#F39200;}
	.st43{fill:#1A1A1A;}
	.st44{fill:url(#SVGID_39_);}
	.st45{fill:url(#SVGID_40_);}
	.st46{fill:url(#SVGID_41_);}
	.st47{fill:url(#SVGID_42_);}
	.st48{fill:url(#SVGID_43_);}
	.st49{fill:url(#SVGID_44_);}
	.st50{fill:url(#SVGID_45_);}
	.st51{fill:url(#SVGID_46_);}
	.st52{fill:url(#SVGID_47_);}
	.st53{fill:url(#SVGID_48_);}
	.st54{fill:url(#SVGID_49_);}
	.st55{fill:url(#SVGID_50_);}
	.st56{fill:url(#SVGID_51_);}
	.st57{fill:url(#SVGID_52_);}
	.st58{fill:url(#SVGID_53_);}
	.st59{fill:url(#SVGID_54_);}
	.st60{fill:url(#SVGID_55_);}
	.st61{fill:url(#SVGID_56_);}
	.st62{fill:url(#SVGID_57_);}
	.st63{fill:url(#SVGID_58_);}
</style>
<g class="st0">
	
		<linearGradient id="SVGID_1_" gradientUnits="userSpaceOnUse" x1="6.8253" y1="-176.5684" x2="121.1762" y2="-176.5684" gradientTransform="matrix(0 1 -1 0 128 0)">
		<stop  offset="0" style="stop-color:#C4F5FF"/>
		<stop  offset="0.4362" style="stop-color:#FFFFFF"/>
		<stop  offset="1" style="stop-color:#B4E1FF"/>
	</linearGradient>
	<path class="st1" d="M310.37,120.68c0.37-0.53,0.24-1.27-0.29-1.64l-4.35-3.05v-5.08l6.43,4.51c0.53,0.37,1.27,0.25,1.64-0.29
		c0.37-0.53,0.24-1.26-0.29-1.64l-7.78-5.46v-4.43l9.44,6.63c0.53,0.37,1.26,0.25,1.64-0.29c0.37-0.53,0.24-1.26-0.29-1.64
		l-9.49-6.66l28.04-16.19l0.27,12.08c0.01,0.65,0.55,1.17,1.2,1.15c0.65-0.02,1.18-0.54,1.15-1.2l-0.27-12.05l3.82,2.24l0.21,9.85
		c0.02,0.65,0.56,1.17,1.2,1.15c0.65-0.01,1.18-0.58,1.15-1.2l-0.19-8.4l4.86,2.86l-0.3,5.54c0,0.02,0,0.04,0,0.06
		c0,0.62,0.49,1.14,1.11,1.17c0.65,0.04,1.2-0.46,1.24-1.11l0.29-5.44l4.51-1.93c0.6-0.25,0.87-0.95,0.62-1.54
		c-0.25-0.6-0.95-0.87-1.54-0.62l-4.59,1.96c-0.05-0.04-0.09-0.09-0.14-0.12l-4.27-2.51l7.01-3c0.6-0.25,0.88-0.95,0.62-1.54
		c-0.26-0.6-0.95-0.87-1.54-0.62l-8.61,3.68l-3.88-2.28l10.59-4.53c0.6-0.25,0.88-0.95,0.62-1.54c-0.26-0.59-0.95-0.87-1.54-0.62
		l-10.9,4.66V48.32l10.9,4.66c0.59,0.25,1.28-0.02,1.54-0.62c0.26-0.6-0.02-1.29-0.62-1.54l-11.18-4.78l3.89-2.27l9.18,3.92
		c0.6,0.26,1.28-0.02,1.54-0.62c0.26-0.59-0.02-1.29-0.62-1.54l-7.58-3.24l4.47-2.62l5.1,2.18c0.6,0.26,1.29-0.02,1.54-0.62
		c0.26-0.6-0.02-1.29-0.62-1.54l-4.51-1.93l-0.29-5.44c-0.04-0.65-0.59-1.15-1.24-1.11c-0.63,0.03-1.11,0.55-1.11,1.17
		c0,0.02,0,0.04,0,0.06l0.27,5l-4.82,2.82l0.17-7.81c0.03-0.66-0.5-1.19-1.15-1.2c-0.65-0.01-1.19,0.5-1.2,1.15l-0.2,9.26
		l-3.82,2.23l0.25-11.44c0.04-0.7-0.5-1.19-1.15-1.2c-0.65-0.01-1.19,0.5-1.2,1.15l-0.25,11.56l-29.24-16.88l10.55-7.37
		c0.53-0.37,0.66-1.1,0.29-1.63c-0.37-0.53-1.11-0.66-1.64-0.29l-9.32,6.51v-4.42l7.66-5.35c0.53-0.37,0.66-1.1,0.29-1.64
		c-0.37-0.53-1.1-0.66-1.64-0.29l-6.32,4.41v-5.08l4.25-2.97c0.53-0.37,0.66-1.1,0.29-1.64c-0.37-0.53-1.11-0.66-1.64-0.29
		l-4.02,2.81l-4.77-2.63c-0.57-0.32-1.28-0.11-1.6,0.46c-0.1,0.18-0.14,0.37-0.14,0.57c0,0.42,0.22,0.82,0.61,1.03l4.67,2.57v5.71
		l-6.99-4.57c-0.54-0.35-1.27-0.2-1.63,0.34c-0.13,0.2-0.19,0.42-0.19,0.64c0,0.38,0.19,0.76,0.54,0.99l8.27,5.41v4.5l-10.22-6.68
		c-0.54-0.36-1.27-0.2-1.63,0.34c-0.13,0.2-0.19,0.42-0.19,0.64c0,0.38,0.19,0.76,0.53,0.98l10.98,7.17l-28.52,16.47l-0.98-11.55
		c-0.06-0.65-0.62-1.13-1.27-1.07c-0.65,0.05-1.12,0.62-1.07,1.27l1,11.78l-3.82-2.25l-0.83-9.73c-0.06-0.65-0.62-1.13-1.27-1.07
		c-0.65,0.05-1.13,0.62-1.07,1.27l0.69,8.07l-4.4-2.59l-0.47-5.51c-0.06-0.65-0.62-1.13-1.27-1.07c-0.65,0.06-1.14,0.62-1.07,1.27
		l0.45,5.32l-4.62,2.33c-0.41,0.21-0.65,0.62-0.65,1.05c0,0.18,0.04,0.36,0.13,0.53c0.29,0.58,1,0.81,1.58,0.52l4.76-2.4l4.48,2.64
		l-7.1,3.59c-0.41,0.21-0.65,0.62-0.65,1.05c0,0.18,0.04,0.36,0.13,0.53c0.29,0.58,1,0.81,1.58,0.52l8.46-4.27l3.86,2.27l-10.51,5.3
		c-0.41,0.21-0.64,0.62-0.64,1.05c0,0.18,0.04,0.36,0.12,0.53c0.29,0.58,1,0.81,1.58,0.52l9.89-4.99v32.33l-10.47-5.28
		c-0.58-0.29-1.28-0.06-1.58,0.52c-0.09,0.17-0.13,0.35-0.13,0.53c0,0.43,0.23,0.84,0.65,1.05l10.54,5.32l-3.87,2.27l-8.48-4.28
		c-0.58-0.29-1.28-0.06-1.58,0.52c-0.09,0.17-0.12,0.35-0.12,0.53c0,0.43,0.23,0.84,0.65,1.05l7.12,3.6l-4.5,2.63l-4.76-2.4
		c-0.58-0.29-1.29-0.06-1.58,0.52c-0.09,0.17-0.13,0.35-0.13,0.53c0,0.43,0.24,0.84,0.65,1.05l4.62,2.33l-0.45,5.32
		c-0.07,0.64,0.42,1.22,1.07,1.27c0.65,0.06,1.22-0.43,1.27-1.07l0.47-5.5l4.39-2.57l-0.68,8.05c-0.06,0.65,0.43,1.22,1.07,1.27
		c0.65,0.05,1.22-0.42,1.27-1.07l0.82-9.7l3.83-2.24l-1,11.74c-0.07,0.65,0.42,1.22,1.07,1.27c0.65,0.05,1.22-0.42,1.27-1.07
		l1.01-11.89l27.99,16.16l-9.76,6.35c-0.35,0.23-0.54,0.6-0.54,0.99c0,0.22,0.06,0.44,0.19,0.64c0.35,0.55,1.08,0.7,1.62,0.35
		l10.1-6.57v4.49l-8.15,5.3c-0.35,0.22-0.54,0.6-0.54,0.99c0,0.22,0.06,0.44,0.19,0.64c0.35,0.54,1.08,0.7,1.63,0.34l6.87-4.47v5.22
		l-4.64,3.01c-0.35,0.23-0.53,0.6-0.53,0.99c0,0.22,0.06,0.44,0.19,0.64c0.35,0.54,1.08,0.7,1.63,0.34l4.34-2.82l4.37,3.07
		C309.27,121.34,310,121.21,310.37,120.68z M305.73,84.86l1.96-1.13v-2.6l9.43-5.44l1.9,1.1l1.88-1.08l13.06,7.68l-28.22,16.29
		V84.86z M305.73,78.8V66.79l9.99,5.88v2.23l0.21,0.12l-8.38,4.84L305.73,78.8z M316.71,70.52l-10.03-5.9l9.9-5.79l2.43,1.41
		l0.16-0.09v9.14l-0.16-0.09L316.71,70.52z M315.73,54.53v2.07l-9.99,5.85V50.26l1.52-0.88l8.7,5.02L315.73,54.53z M303.38,50.45
		v12.23L293.73,57v-2.46l-0.39-0.23l8.37-4.83L303.38,50.45z M292.53,59.02l9.5,5.59l-9.7,5.67l-1.9-1.09l-0.49,0.29v-9.53
		l0.49,0.29L292.53,59.02z M293.73,74.89v-2.7l9.65-5.65v12.07l-1.98,1.14l-8.05-4.65L293.73,74.89z M322.31,73.81v-2.72l-1.96-1.13
		V59.46l1.96-1.13v-2.86l13.13-7.68v33.74L322.31,73.81z M320.77,53.65l-1.76-1.01l-1.9,1.09l-9.43-5.45v-2.95l-1.96-1.13V29.73
		l28.15,16.25L320.77,53.65z M303.38,44.02l-2.28,1.32v3.13l-8.94,5.16l-1.73-1l-2.08,1.2l-13.24-7.79l28.26-16.32V44.02z
		 M287.15,55.85v2.48l1.62,0.93v10.89l-1.62,0.93v2.23l-13.47,7.88V47.93L287.15,55.85z M288.14,75.46l2.3,1.33l1.73-1l8.93,5.16
		v2.78l2.28,1.31v14.64l-28.5-16.45L288.14,75.46z"/>
	<g class="st2">
		
			<linearGradient id="SVGID_2_" gradientUnits="userSpaceOnUse" x1="58.3431" y1="-187.366" x2="55.1676" y2="-175.7564" gradientTransform="matrix(0 1 -1 0 128 0)">
			<stop  offset="0" style="stop-color:#ACF2FF"/>
			<stop  offset="0.3997" style="stop-color:#1BB3FF"/>
			<stop  offset="1" style="stop-color:#004778"/>
		</linearGradient>
		<path class="st3" d="M315.73,54.53l0.22-0.13l-8.7-5.02l-1.52,0.88v12.19l9.99-5.85V54.53z M308.56,53.41l3.54,2.04l-3.54,2.07
			V53.41z"/>
		
			<linearGradient id="SVGID_3_" gradientUnits="userSpaceOnUse" x1="65.6697" y1="-192.2942" x2="61.9435" y2="-178.6716" gradientTransform="matrix(0 1 -1 0 128 0)">
			<stop  offset="0" style="stop-color:#ACF2FF"/>
			<stop  offset="0.3997" style="stop-color:#1BB3FF"/>
			<stop  offset="1" style="stop-color:#004778"/>
		</linearGradient>
		<path class="st4" d="M306.68,64.62l10.03,5.9l2.3-1.33l0.16,0.09v-9.14l-0.16,0.09l-2.43-1.41L306.68,64.62z M316.34,67.02
			l-4.07-2.4l4.07-2.38V67.02z"/>
		
			<linearGradient id="SVGID_4_" gradientUnits="userSpaceOnUse" x1="65.8916" y1="-211.923" x2="60.1722" y2="-191.0134" gradientTransform="matrix(0 1 -1 0 128 0)">
			<stop  offset="0" style="stop-color:#ACF2FF"/>
			<stop  offset="0.3997" style="stop-color:#1BB3FF"/>
			<stop  offset="1" style="stop-color:#004778"/>
		</linearGradient>
		<path class="st5" d="M322.31,58.33l-1.96,1.13v10.49l1.96,1.13v2.72l13.13,7.73V47.79l-13.13,7.68V58.33z M332.61,76.59l-7.47-4.4
			v-1.1v-1.63l-1.42-0.82l-0.54-0.32V61.1l0.54-0.32l1.42-0.82v-1.63V57.1l7.47-4.37V76.59z"/>
		
			<linearGradient id="SVGID_5_" gradientUnits="userSpaceOnUse" x1="67.1266" y1="-173.4792" x2="63.5073" y2="-160.2472" gradientTransform="matrix(0 1 -1 0 128 0)">
			<stop  offset="0" style="stop-color:#ACF2FF"/>
			<stop  offset="0.3997" style="stop-color:#1BB3FF"/>
			<stop  offset="1" style="stop-color:#004778"/>
		</linearGradient>
		<path class="st6" d="M302.03,64.61l-9.5-5.59l-2.1,1.21l-0.49-0.29v9.53l0.49-0.29l1.9,1.09L302.03,64.61z M292.77,62.44
			l3.67,2.17l-3.67,2.15V62.44z"/>
		
			<linearGradient id="SVGID_6_" gradientUnits="userSpaceOnUse" x1="68.847" y1="-161.3378" x2="63.1161" y2="-140.386" gradientTransform="matrix(0 1 -1 0 128 0)">
			<stop  offset="0" style="stop-color:#ACF2FF"/>
			<stop  offset="0.3997" style="stop-color:#1BB3FF"/>
			<stop  offset="1" style="stop-color:#004778"/>
		</linearGradient>
		<path class="st7" d="M287.15,71.09l1.62-0.93V59.27l-1.62-0.93v-2.48l-13.47-7.92V81.2l13.47-7.88V71.09z M276.51,52.87l7.81,4.6
			v0.86v1.63l1.42,0.81l0.21,0.12v7.62l-0.21,0.12l-1.42,0.81v1.64v0.61l-7.81,4.57V52.87z"/>
		
			<linearGradient id="SVGID_7_" gradientUnits="userSpaceOnUse" x1="92.7142" y1="-203.6765" x2="85.1832" y2="-176.1438" gradientTransform="matrix(0 1 -1 0 128 0)">
			<stop  offset="0" style="stop-color:#ACF2FF"/>
			<stop  offset="0.3997" style="stop-color:#1BB3FF"/>
			<stop  offset="1" style="stop-color:#004778"/>
		</linearGradient>
		<path class="st8" d="M320.89,75.7l-1.88,1.08l-1.9-1.1l-9.43,5.44v2.6l-1.96,1.13v14.82l28.22-16.29L320.89,75.7z M308.56,86.49
			l0.54-0.31l1.41-0.81v-1.63v-0.97l6.6-3.81l0.49,0.28l1.42,0.82l1.41-0.82l0.45-0.26l7.45,4.39l-19.77,11.42V86.49z"/>
		
			<linearGradient id="SVGID_8_" gradientUnits="userSpaceOnUse" x1="90.075" y1="-178.3375" x2="81.1394" y2="-145.6698" gradientTransform="matrix(0 1 -1 0 128 0)">
			<stop  offset="0" style="stop-color:#ACF2FF"/>
			<stop  offset="0.3997" style="stop-color:#1BB3FF"/>
			<stop  offset="1" style="stop-color:#004778"/>
		</linearGradient>
		<path class="st9" d="M301.1,83.73v-2.78l-8.93-5.16l-1.73,1l-2.3-1.33l-13.26,7.76l28.5,16.45V85.04L301.1,83.73z M299.69,86.18
			l0.86,0.5v8.1l-20.05-11.57l7.64-4.47l0.87,0.5l1.41,0.82l1.41-0.82l0.32-0.19l6.11,3.52v1.15v1.63L299.69,86.18z"/>
		
			<linearGradient id="SVGID_9_" gradientUnits="userSpaceOnUse" x1="79.852" y1="-234.7795" x2="46.9797" y2="-114.6014" gradientTransform="matrix(0 1 -1 0 128 0)">
			<stop  offset="0" style="stop-color:#ACF2FF"/>
			<stop  offset="0.3997" style="stop-color:#1BB3FF"/>
			<stop  offset="1" style="stop-color:#004778"/>
		</linearGradient>
		<path class="st10" d="M304.3,121.31l2.81,1.97c1.81,1.26,4.31,0.82,5.57-0.98c0.48-0.68,0.73-1.47,0.73-2.3
			c0-0.54-0.11-1.07-0.31-1.56c0.14-0.01,0.28-0.03,0.43-0.05c1.05-0.18,1.97-0.77,2.59-1.65c0.47-0.68,0.73-1.47,0.73-2.29
			c0-0.43-0.07-0.86-0.21-1.26c0.97-0.2,1.87-0.75,2.49-1.62c0.48-0.68,0.73-1.47,0.73-2.3c0-1.3-0.63-2.52-1.69-3.27l-5.88-4.12
			l20.07-11.58l0.16,7.3c0.02,1.07,0.46,2.06,1.23,2.8c0.77,0.74,1.78,1.14,2.86,1.11c1.21-0.03,2.27-0.57,2.99-1.41
			c0.76,0.89,1.89,1.44,3.14,1.41c1.36-0.03,2.56-0.75,3.26-1.81c0.67,1.05,1.83,1.77,3.17,1.84c2.2,0.12,4.09-1.58,4.21-3.78
			l0.2-3.68l2.89-1.24c1.47-0.63,2.43-2.07,2.43-3.68c0-0.55-0.11-1.08-0.33-1.58c-0.56-1.31-1.74-2.16-3.06-2.37
			c0.3-0.57,0.47-1.21,0.47-1.88c0-0.55-0.11-1.09-0.33-1.59c-0.51-1.19-1.55-2.01-2.73-2.3c0.16-0.44,0.25-0.91,0.25-1.4
			c0-0.55-0.11-1.08-0.33-1.58c-0.88-2.02-3.23-2.96-5.26-2.09l-6.95,2.97V52.61l6.95,2.98c2.02,0.87,4.38-0.08,5.25-2.1
			c0.22-0.5,0.33-1.03,0.33-1.58c0-0.49-0.09-0.96-0.25-1.4c0.18-0.05,0.37-0.1,0.55-0.18c0.99-0.4,1.77-1.16,2.19-2.14
			c0.21-0.48,0.32-1.02,0.32-1.57c0-0.67-0.17-1.31-0.47-1.88c0.29-0.05,0.58-0.13,0.87-0.24c0.99-0.4,1.77-1.16,2.19-2.14
			c0.21-0.49,0.32-1.02,0.32-1.57c0-1.61-0.96-3.05-2.43-3.68l-2.89-1.23l-0.2-3.68c-0.12-2.21-2.01-3.9-4.22-3.78
			c-1.33,0.07-2.48,0.79-3.16,1.84c-0.7-1.06-1.9-1.78-3.26-1.81c-1.24-0.03-2.38,0.52-3.13,1.4c-0.71-0.84-1.78-1.38-2.99-1.4
			c-1.07-0.02-2.08,0.37-2.85,1.11c-0.77,0.74-1.21,1.74-1.24,2.81l-0.15,6.79l-21.26-12.27l6.91-4.82
			c1.07-0.74,1.71-1.97,1.71-3.28c0-0.82-0.25-1.61-0.71-2.28c-0.6-0.86-1.48-1.44-2.5-1.65c0.14-0.4,0.21-0.83,0.21-1.26
			c0-0.82-0.25-1.61-0.72-2.29c-0.72-1.03-1.85-1.62-3.02-1.7c0.21-0.49,0.32-1.02,0.32-1.57c0-0.81-0.24-1.6-0.7-2.27
			c-1.28-1.83-3.79-2.27-5.59-1.01l-2.57,1.79l-3.23-1.78c-1.93-1.06-4.37-0.36-5.44,1.57c-0.33,0.61-0.49,1.27-0.49,1.93
			c0,0.61,0.14,1.2,0.39,1.72c-0.25,0-0.49,0.03-0.73,0.09c-1.05,0.22-1.95,0.83-2.53,1.72c-0.43,0.68-0.65,1.43-0.65,2.19
			c0,0.43,0.07,0.84,0.19,1.24c-1.09,0.16-2.12,0.77-2.77,1.76c-0.43,0.68-0.65,1.43-0.65,2.2c0,1.36,0.68,2.61,1.81,3.35l7.12,4.65
			l-20.69,11.94l-0.6-7.12c-0.19-2.19-2.13-3.83-4.32-3.65c-1.07,0.09-2.01,0.59-2.67,1.33c-0.81-0.91-2.02-1.44-3.32-1.33
			c-1.27,0.11-2.34,0.78-3,1.75c-0.8-1.06-2.11-1.69-3.53-1.57c-2.06,0.18-3.67,1.92-3.67,3.96c0,0.13,0.01,0.26,0.02,0.39
			l0.29,3.39l-2.92,1.47c-1.35,0.68-2.2,2.05-2.2,3.58c0,0.63,0.16,1.27,0.45,1.83c0.64,1.27,1.9,2.05,3.24,2.16
			c-0.32,0.58-0.49,1.24-0.49,1.93c0,0.62,0.15,1.24,0.43,1.8c0.57,1.12,1.6,1.86,2.74,2.11c-0.18,0.46-0.29,0.97-0.29,1.49
			c0,0.62,0.15,1.24,0.42,1.79c0.49,0.97,1.31,1.67,2.33,2.01c1.02,0.33,2.11,0.25,3.06-0.23l5.78-2.92v23.14l-6.37-3.21
			c-0.95-0.48-2.03-0.57-3.05-0.23c-1.01,0.33-1.84,1.04-2.32,2c-0.28,0.53-0.43,1.17-0.43,1.81c0,0.52,0.1,1.03,0.28,1.49
			c-1.14,0.25-2.16,0.99-2.73,2.11c-0.28,0.54-0.43,1.16-0.43,1.8c0,0.69,0.17,1.35,0.49,1.93c-0.32,0.03-0.63,0.09-0.94,0.19
			c-1.02,0.34-1.84,1.05-2.32,2.01c-0.28,0.55-0.43,1.17-0.43,1.79c0,1.52,0.84,2.89,2.19,3.57l2.92,1.47l-0.29,3.42
			c-0.01,0.08-0.02,0.22-0.02,0.35c0,2.05,1.61,3.79,3.66,3.97c1.42,0.12,2.74-0.52,3.55-1.59c0.66,0.98,1.74,1.66,2.97,1.76
			c1.31,0.11,2.53-0.43,3.34-1.34c0.67,0.75,1.6,1.25,2.66,1.34c1.07,0.09,2.11-0.24,2.92-0.93c0.82-0.69,1.31-1.66,1.4-2.73
			l0.64-7.44l20.14,11.63l-5.9,3.84c-1.14,0.74-1.82,1.99-1.82,3.36c0,0.78,0.22,1.53,0.65,2.19c0.57,0.88,1.47,1.5,2.51,1.73
			c0.09,0.02,0.17,0.03,0.25,0.04c-0.13,0.4-0.2,0.81-0.2,1.24c0,0.78,0.23,1.53,0.65,2.18c0.75,1.15,1.98,1.78,3.26,1.81
			c-0.26,0.53-0.39,1.12-0.39,1.74c0,0.78,0.22,1.54,0.65,2.18c1.21,1.85,3.69,2.37,5.54,1.17L304.3,121.31z M308.73,120.96
			l-4.37-3.07l-4.34,2.82c-0.54,0.35-1.27,0.2-1.63-0.34c-0.13-0.2-0.19-0.42-0.19-0.64c0-0.39,0.18-0.76,0.53-0.99l4.64-3.01v-5.22
			l-6.87,4.47c-0.55,0.35-1.27,0.2-1.63-0.34c-0.13-0.2-0.19-0.42-0.19-0.64c0-0.39,0.19-0.76,0.54-0.99l8.15-5.3v-4.49l-10.1,6.57
			c-0.54,0.35-1.27,0.2-1.62-0.35c-0.13-0.2-0.19-0.42-0.19-0.64c0-0.38,0.19-0.76,0.54-0.99l9.76-6.35L273.77,85.3l-1.01,11.89
			c-0.05,0.65-0.62,1.13-1.27,1.07c-0.61-0.05-1.08-0.56-1.08-1.15c0-0.04,0-0.08,0.01-0.12l1-11.74l-3.83,2.24l-0.82,9.7
			c-0.06,0.65-0.62,1.13-1.27,1.07c-0.61-0.05-1.07-0.57-1.07-1.17c0-0.03,0-0.07,0-0.1l0.68-8.05l-4.39,2.57l-0.47,5.5
			c-0.06,0.65-0.63,1.13-1.27,1.07c-0.61-0.05-1.07-0.56-1.07-1.15c0-0.04,0-0.08,0-0.12l0.45-5.32l-4.62-2.33
			c-0.41-0.21-0.65-0.62-0.65-1.05c0-0.18,0.04-0.36,0.13-0.53c0.29-0.58,1-0.81,1.58-0.52l4.76,2.4l4.5-2.63l-7.12-3.6
			c-0.41-0.21-0.65-0.62-0.65-1.05c0-0.18,0.04-0.36,0.12-0.53c0.29-0.58,1-0.81,1.58-0.52l8.48,4.28l3.87-2.27l-10.54-5.32
			c-0.41-0.21-0.65-0.62-0.65-1.05c0-0.18,0.04-0.36,0.13-0.53c0.29-0.58,1-0.81,1.58-0.52l10.47,5.28V48.69l-9.89,4.99
			c-0.58,0.29-1.29,0.06-1.58-0.52c-0.08-0.17-0.12-0.35-0.12-0.53c0-0.43,0.24-0.85,0.64-1.05l10.51-5.3l-3.86-2.27l-8.46,4.27
			c-0.58,0.3-1.29,0.06-1.58-0.52c-0.09-0.17-0.13-0.35-0.13-0.53c0-0.43,0.24-0.84,0.65-1.05l7.1-3.59l-4.48-2.64l-4.76,2.4
			c-0.58,0.29-1.28,0.06-1.58-0.52c-0.09-0.17-0.13-0.35-0.13-0.53c0-0.43,0.24-0.84,0.65-1.05l4.62-2.33l-0.45-5.32
			c-0.01-0.04-0.01-0.08-0.01-0.12c0-0.6,0.47-1.09,1.08-1.14c0.65-0.06,1.22,0.42,1.27,1.07l0.47,5.51l4.4,2.59l-0.69-8.07
			c0-0.04,0-0.07,0-0.11c0-0.61,0.47-1.11,1.08-1.16c0.65-0.05,1.21,0.42,1.27,1.07l0.83,9.73l3.82,2.25l-1-11.78
			c0-0.03-0.01-0.07-0.01-0.1c0-0.61,0.46-1.12,1.08-1.18c0.65-0.05,1.22,0.42,1.27,1.07l0.98,11.55l28.52-16.47l-10.98-7.17
			c-0.34-0.22-0.53-0.6-0.53-0.98c0-0.22,0.06-0.45,0.19-0.64c0.36-0.54,1.09-0.7,1.63-0.34l10.22,6.68v-4.5l-8.27-5.41
			c-0.35-0.23-0.54-0.61-0.54-0.99c0-0.22,0.06-0.44,0.19-0.64c0.36-0.54,1.09-0.69,1.63-0.34l6.99,4.57v-5.71l-4.67-2.57
			c-0.39-0.21-0.61-0.61-0.61-1.03c0-0.19,0.05-0.39,0.14-0.57c0.31-0.57,1.03-0.78,1.6-0.46l4.77,2.63l4.02-2.81
			c0.53-0.37,1.26-0.24,1.64,0.29c0.14,0.2,0.21,0.44,0.21,0.67c0,0.37-0.17,0.74-0.5,0.97l-4.25,2.97v5.08l6.32-4.41
			c0.54-0.37,1.27-0.24,1.64,0.29c0.14,0.21,0.21,0.44,0.21,0.67c0,0.37-0.17,0.74-0.5,0.97l-7.66,5.35v4.42l9.32-6.51
			c0.53-0.37,1.27-0.24,1.64,0.29c0.14,0.21,0.21,0.44,0.21,0.67c0,0.37-0.18,0.73-0.5,0.96l-10.55,7.37l29.24,16.88l0.25-11.56
			c0.01-0.65,0.55-1.16,1.2-1.15c0.62,0.01,1.15,0.47,1.15,1.14c0,0.02,0,0.04,0,0.07l-0.25,11.44l3.82-2.23l0.2-9.26
			c0.02-0.65,0.56-1.16,1.2-1.15c0.63,0.01,1.15,0.52,1.15,1.15c0,0.02,0,0.04,0,0.05l-0.17,7.81l4.82-2.82l-0.27-5
			c0-0.02,0-0.04,0-0.06c0-0.62,0.49-1.14,1.11-1.17c0.65-0.04,1.2,0.46,1.24,1.11l0.29,5.44l4.51,1.93
			c0.44,0.19,0.71,0.62,0.71,1.08c0,0.16-0.03,0.31-0.1,0.46c-0.25,0.6-0.95,0.88-1.54,0.62l-5.1-2.18l-4.47,2.62l7.58,3.24
			c0.45,0.19,0.71,0.62,0.71,1.08c0,0.16-0.03,0.31-0.1,0.47c-0.26,0.6-0.95,0.87-1.54,0.62l-9.18-3.92l-3.89,2.27l11.18,4.78
			c0.44,0.19,0.71,0.63,0.71,1.08c0,0.15-0.03,0.31-0.1,0.46c-0.26,0.59-0.95,0.87-1.54,0.62l-10.9-4.66v33.29l10.9-4.66
			c0.59-0.25,1.28,0.02,1.54,0.62c0.07,0.15,0.1,0.3,0.1,0.46c0,0.46-0.27,0.89-0.71,1.08l-10.59,4.53l3.88,2.28l8.61-3.68
			c0.6-0.25,1.28,0.02,1.54,0.62c0.06,0.15,0.1,0.31,0.1,0.47c0,0.45-0.27,0.89-0.71,1.08l-7.01,3l4.27,2.51
			c0.05,0.03,0.09,0.09,0.14,0.12l4.59-1.96c0.6-0.25,1.29,0.02,1.54,0.62c0.06,0.15,0.1,0.31,0.1,0.46c0,0.45-0.27,0.89-0.71,1.08
			l-4.51,1.93l-0.29,5.44c-0.04,0.65-0.59,1.14-1.24,1.11c-0.63-0.03-1.11-0.55-1.11-1.17c0-0.02,0-0.04,0-0.06l0.3-5.54l-4.86-2.86
			l0.19,8.4c0,0.01,0,0.03,0,0.05c0,0.6-0.52,1.14-1.15,1.15c-0.65,0.02-1.19-0.5-1.2-1.15l-0.21-9.85l-3.82-2.24l0.27,12.05
			c0,0.02,0,0.04,0,0.05c0,0.64-0.53,1.13-1.15,1.15c-0.65,0.01-1.19-0.5-1.2-1.15l-0.27-12.08l-28.04,16.19l9.49,6.66
			c0.33,0.23,0.5,0.6,0.5,0.97c0,0.23-0.07,0.46-0.21,0.67c-0.37,0.53-1.11,0.66-1.64,0.29l-9.44-6.63v4.43l7.78,5.46
			c0.33,0.23,0.5,0.59,0.5,0.96c0,0.23-0.07,0.47-0.21,0.67c-0.37,0.53-1.1,0.66-1.64,0.29l-6.43-4.51v5.08l4.35,3.05
			c0.33,0.23,0.5,0.6,0.5,0.97c0,0.23-0.07,0.47-0.21,0.68C310,121.21,309.27,121.34,308.73,120.96z"/>
		
			<linearGradient id="SVGID_10_" gradientUnits="userSpaceOnUse" x1="73.8145" y1="-176.8088" x2="70.726" y2="-165.5177" gradientTransform="matrix(0 1 -1 0 128 0)">
			<stop  offset="0" style="stop-color:#ACF2FF"/>
			<stop  offset="0.3997" style="stop-color:#1BB3FF"/>
			<stop  offset="1" style="stop-color:#004778"/>
		</linearGradient>
		<path class="st11" d="M293.73,74.89l-0.38,0.22l8.05,4.65l1.98-1.14V66.55l-9.65,5.65V74.89z M300.55,76l-3.89-2.25l3.89-2.28V76z
			"/>
		
			<linearGradient id="SVGID_11_" gradientUnits="userSpaceOnUse" x1="75.8343" y1="-187.8334" x2="72.4627" y2="-175.5073" gradientTransform="matrix(0 1 -1 0 128 0)">
			<stop  offset="0" style="stop-color:#ACF2FF"/>
			<stop  offset="0.3997" style="stop-color:#1BB3FF"/>
			<stop  offset="1" style="stop-color:#004778"/>
		</linearGradient>
		<path class="st12" d="M315.93,75.01l-0.21-0.12v-2.23l-9.99-5.88V78.8l1.82,1.05L315.93,75.01z M308.56,71.73l3.67,2.16
			l-3.67,2.12V71.73z"/>
		
			<linearGradient id="SVGID_12_" gradientUnits="userSpaceOnUse" x1="56.7801" y1="-177.1167" x2="53.4409" y2="-164.9091" gradientTransform="matrix(0 1 -1 0 128 0)">
			<stop  offset="0" style="stop-color:#ACF2FF"/>
			<stop  offset="0.3997" style="stop-color:#1BB3FF"/>
			<stop  offset="1" style="stop-color:#004778"/>
		</linearGradient>
		<path class="st13" d="M293.73,54.53V57l9.65,5.68V50.45l-1.68-0.97l-8.37,4.83L293.73,54.53z M300.55,57.73l-3.71-2.18l3.71-2.14
			V57.73z"/>
		
			<linearGradient id="SVGID_13_" gradientUnits="userSpaceOnUse" x1="43.92" y1="-175.6846" x2="36.419" y2="-148.2616" gradientTransform="matrix(0 1 -1 0 128 0)">
			<stop  offset="0" style="stop-color:#ACF2FF"/>
			<stop  offset="0.3997" style="stop-color:#1BB3FF"/>
			<stop  offset="1" style="stop-color:#004778"/>
		</linearGradient>
		<path class="st14" d="M290.44,52.63l1.73,1l8.94-5.16v-3.13l2.28-1.32V29.73l-28.26,16.32l13.24,7.79L290.44,52.63z M280.73,46.07
			l19.82-11.44v7.76l-0.86,0.5l-1.41,0.82v1.63v1.5l-6.12,3.53l-0.31-0.18l-1.41-0.81l-1.41,0.81l-0.65,0.38L280.73,46.07z"/>
		
			<linearGradient id="SVGID_14_" gradientUnits="userSpaceOnUse" x1="47.821" y1="-205.7007" x2="38.9968" y2="-173.4404" gradientTransform="matrix(0 1 -1 0 128 0)">
			<stop  offset="0" style="stop-color:#ACF2FF"/>
			<stop  offset="0.3997" style="stop-color:#1BB3FF"/>
			<stop  offset="1" style="stop-color:#004778"/>
		</linearGradient>
		<path class="st15" d="M307.69,45.33v2.95l9.43,5.45l1.9-1.09l1.76,1.01l13.11-7.67l-28.15-16.25V44.2L307.69,45.33z M309.1,42.88
			l-0.54-0.31v-7.94L328.25,46l-7.49,4.38l-0.33-0.19l-1.41-0.82l-1.41,0.81l-0.48,0.28l-6.6-3.81v-1.32V43.7L309.1,42.88z"/>
	</g>
</g>
<g class="st0">
	
		<rect x="-38.99" y="67.8" transform="matrix(0.5256 -0.8508 0.8508 0.5256 -34.3146 84.0603)" class="st2" width="194.4" height="10"/>
</g>
<g class="st0">
	
		<radialGradient id="SVGID_15_" cx="156.6203" cy="64.0014" r="42.8932" fx="147.8158" fy="51.3218" gradientUnits="userSpaceOnUse">
		<stop  offset="0.1436" style="stop-color:#FFF75D"/>
		<stop  offset="0.5314" style="stop-color:#FFDE00"/>
		<stop  offset="0.9166" style="stop-color:#FF7D00"/>
	</radialGradient>
	<path class="st16" d="M157.43,27.54c-21.26,0-38.49,17.24-38.49,38.5c0,21.26,17.23,38.5,38.49,38.5c21.26,0,38.5-17.24,38.5-38.5
		C195.93,44.77,178.69,27.54,157.43,27.54z"/>
	<g class="st2">
		<path class="st17" d="M157.43,27.54c-21.26,0-38.49,17.24-38.49,38.5c0,21.26,17.23,38.5,38.49,38.5c21.26,0,38.5-17.24,38.5-38.5
			C195.93,44.77,178.69,27.54,157.43,27.54z M156.07,101.98c-19.85,0-35.95-16.1-35.95-35.95c0-19.85,16.1-35.95,35.95-35.95
			c19.85,0,35.95,16.1,35.95,35.95C192.02,85.89,175.93,101.98,156.07,101.98z"/>
		<path class="st17" d="M161.62,14.8c0,2.16-1.61,3.91-3.61,3.91l0,0c-1.99,0-3.61-1.75-3.61-3.91V7.91c0-2.16,1.62-3.91,3.61-3.91
			l0,0c1.99,0,3.61,1.75,3.61,3.91V14.8z"/>
		<path class="st17" d="M161.62,120.1c0,2.16-1.61,3.9-3.61,3.9l0,0c-1.99,0-3.61-1.75-3.61-3.9v-6.89c0-2.16,1.62-3.91,3.61-3.91
			l0,0c1.99,0,3.61,1.75,3.61,3.91V120.1z"/>
		<path class="st17" d="M207.22,67.61c-2.16,0-3.91-1.62-3.91-3.61l0,0c0-1.99,1.75-3.61,3.91-3.61h6.89c2.16,0,3.9,1.61,3.9,3.61
			l0,0c0,1.99-1.75,3.61-3.9,3.61H207.22z"/>
		<path class="st17" d="M101.92,67.61c-2.16,0-3.91-1.62-3.91-3.61l0,0c0-1.99,1.75-3.61,3.91-3.61h6.89c2.16,0,3.91,1.61,3.91,3.61
			l0,0c0,1.99-1.75,3.61-3.91,3.61H101.92z"/>
		<path class="st17" d="M195.35,31.76c-1.52,1.53-3.9,1.62-5.31,0.21l0,0c-1.41-1.41-1.32-3.78,0.21-5.31l4.87-4.87
			c1.53-1.53,3.91-1.62,5.31-0.21l0,0c1.41,1.41,1.31,3.79-0.21,5.31L195.35,31.76z"/>
		<path class="st17" d="M120.9,106.22c-1.53,1.53-3.9,1.62-5.31,0.21l0,0c-1.41-1.41-1.31-3.79,0.21-5.31l4.87-4.87
			c1.53-1.53,3.91-1.62,5.31-0.21l0,0c1.41,1.41,1.32,3.79-0.21,5.32L120.9,106.22z"/>
		<path class="st17" d="M190.25,101.35c-1.53-1.53-1.62-3.91-0.21-5.32l0,0c1.41-1.41,3.79-1.31,5.31,0.21l4.87,4.87
			c1.53,1.53,1.62,3.91,0.21,5.31l0,0c-1.41,1.41-3.79,1.32-5.31-0.21L190.25,101.35z"/>
		<path class="st17" d="M115.79,26.89c-1.52-1.52-1.62-3.91-0.21-5.31l0,0c1.41-1.41,3.79-1.31,5.31,0.21l4.87,4.87
			c1.53,1.53,1.62,3.9,0.21,5.31l0,0c-1.41,1.41-3.79,1.32-5.31-0.21L115.79,26.89z"/>
	</g>
	<defs>
		<filter id="Adobe_OpacityMaskFilter" filterUnits="userSpaceOnUse" x="121.16" y="30.71" width="57.42" height="38.58">
			<feFlood  style="flood-color:white;flood-opacity:1" result="back"/>
			<feBlend  in="SourceGraphic" in2="back" mode="normal"/>
		</filter>
	</defs>
	<mask maskUnits="userSpaceOnUse" x="121.16" y="30.71" width="57.42" height="38.58" id="SVGID_16_" class="st2">
		<g style="filter:url(#Adobe_OpacityMaskFilter);">
			<defs>
				<filter id="Adobe_OpacityMaskFilter_1_" filterUnits="userSpaceOnUse" x="121.16" y="30.71" width="57.42" height="38.58">
					<feFlood  style="flood-color:white;flood-opacity:1" result="back"/>
					<feBlend  in="SourceGraphic" in2="back" mode="normal"/>
				</filter>
			</defs>
			<mask maskUnits="userSpaceOnUse" x="121.16" y="30.71" width="57.42" height="38.58" id="SVGID_16_">
				<g class="st19">
				</g>
			</mask>
			
				<radialGradient id="SVGID_17_" cx="148.7487" cy="34.1794" r="40.0472" fx="162.3233" fy="13.5417" gradientUnits="userSpaceOnUse">
				<stop  offset="0.2627" style="stop-color:#FFFFFF"/>
				<stop  offset="0.7268" style="stop-color:#FFFFFF"/>
				<stop  offset="0.9716" style="stop-color:#000000"/>
			</radialGradient>
			<path class="st20" d="M132.78,39.19c7.09-7.26,25.45-12.18,38.44-4.87c12.99,7.31,8.66,21.12-12.18,20.3
				c-20.85-0.81-33.44,6.77-35.06,13.26C122.35,74.38,115.18,57.19,132.78,39.19z"/>
		</g>
	</mask>
	
		<radialGradient id="SVGID_18_" cx="148.7487" cy="34.1794" r="40.0472" fx="162.3233" fy="13.5417" gradientUnits="userSpaceOnUse">
		<stop  offset="0.2627" style="stop-color:#FFFFFF"/>
		<stop  offset="0.7268" style="stop-color:#FFF75D"/>
		<stop  offset="0.9716" style="stop-color:#FFDE00"/>
	</radialGradient>
	<path class="st21" d="M132.78,39.19c7.09-7.26,25.45-12.18,38.44-4.87c12.99,7.31,8.66,21.12-12.18,20.3
		c-20.85-0.81-33.44,6.77-35.06,13.26C122.35,74.38,115.18,57.19,132.78,39.19z"/>
</g>
<g class="st0">
	
		<linearGradient id="SVGID_19_" gradientUnits="userSpaceOnUse" x1="6.8253" y1="64.0007" x2="121.1762" y2="64.0007" gradientTransform="matrix(0 -1 1 0 -1.989577e-05 128)">
		<stop  offset="0" style="stop-color:#C4F5FF"/>
		<stop  offset="0.4362" style="stop-color:#FFFFFF"/>
		<stop  offset="1" style="stop-color:#B4E1FF"/>
	</linearGradient>
	<path class="st22" d="M57.59,7.32c-0.41,0.53-0.27,1.27,0.32,1.64l4.81,3.05l0,5.08l-7.1-4.51c-0.59-0.37-1.4-0.25-1.81,0.29
		c-0.41,0.53-0.27,1.26,0.32,1.64l8.59,5.46l0,4.43l-10.43-6.63c-0.59-0.37-1.4-0.25-1.81,0.29c-0.41,0.53-0.27,1.26,0.32,1.64
		l10.49,6.66L30.3,42.55L30,30.47c-0.01-0.65-0.61-1.17-1.33-1.15c-0.71,0.02-1.31,0.54-1.27,1.2l0.29,12.05l-4.22-2.24l-0.24-9.85
		c-0.02-0.65-0.61-1.17-1.33-1.15c-0.71,0.01-1.3,0.58-1.27,1.2l0.21,8.4l-5.37-2.86l0.33-5.54c0-0.02,0-0.04,0-0.06
		c0-0.62-0.54-1.14-1.23-1.17c-0.72-0.04-1.33,0.46-1.37,1.11l-0.32,5.44l-4.98,1.93c-0.66,0.25-0.96,0.95-0.68,1.54
		c0.28,0.6,1.05,0.87,1.71,0.62l5.07-1.96c0.05,0.04,0.1,0.09,0.15,0.12l4.72,2.51l-7.75,3c-0.66,0.25-0.97,0.95-0.68,1.54
		c0.28,0.6,1.04,0.87,1.7,0.62l9.51-3.68l4.28,2.28l-11.7,4.53c-0.66,0.25-0.97,0.95-0.68,1.54c0.28,0.59,1.05,0.87,1.7,0.62
		l12.04-4.66l0,33.29l-12.04-4.66c-0.65-0.25-1.42,0.02-1.7,0.62c-0.28,0.6,0.03,1.29,0.68,1.54l12.35,4.78l-4.29,2.27l-10.14-3.92
		c-0.66-0.26-1.42,0.02-1.7,0.62c-0.29,0.59,0.02,1.29,0.68,1.54l8.37,3.24l-4.94,2.62l-5.63-2.18c-0.66-0.26-1.42,0.02-1.71,0.62
		c-0.29,0.6,0.02,1.29,0.68,1.54l4.98,1.93l0.32,5.44c0.04,0.65,0.65,1.15,1.37,1.11c0.69-0.03,1.23-0.55,1.23-1.17
		c0-0.02,0-0.04,0-0.06l-0.29-5l5.32-2.82l-0.19,7.81c-0.03,0.66,0.55,1.19,1.27,1.2c0.72,0.01,1.31-0.5,1.33-1.15l0.22-9.26
		l4.22-2.23L27.4,95.55c-0.04,0.7,0.56,1.19,1.27,1.2c0.71,0.01,1.31-0.5,1.33-1.15l0.28-11.56l32.31,16.88l-11.66,7.37
		c-0.59,0.37-0.73,1.1-0.32,1.63c0.41,0.53,1.22,0.66,1.81,0.29l10.3-6.51l0,4.42l-8.47,5.35c-0.58,0.37-0.73,1.1-0.32,1.64
		c0.41,0.53,1.22,0.66,1.81,0.29l6.98-4.41v5.08l-4.7,2.97c-0.59,0.37-0.73,1.1-0.32,1.64c0.41,0.53,1.22,0.66,1.81,0.29l4.44-2.81
		l5.27,2.63c0.63,0.32,1.42,0.11,1.77-0.46c0.11-0.18,0.16-0.37,0.16-0.57c0-0.42-0.24-0.82-0.67-1.03l-5.15-2.57l0-5.71l7.72,4.57
		c0.6,0.35,1.4,0.2,1.8-0.34c0.14-0.2,0.21-0.42,0.21-0.64c0-0.38-0.21-0.76-0.59-0.99l-9.14-5.41v-4.5l11.29,6.68
		c0.6,0.36,1.41,0.2,1.8-0.34c0.14-0.2,0.21-0.42,0.21-0.64c0-0.38-0.21-0.76-0.59-0.98l-12.13-7.17l31.51-16.47l1.09,11.55
		c0.06,0.65,0.69,1.13,1.4,1.07c0.71-0.05,1.24-0.62,1.18-1.27l-1.11-11.78l4.22,2.25l0.92,9.73c0.06,0.65,0.69,1.13,1.4,1.07
		c0.71-0.05,1.25-0.62,1.18-1.27l-0.76-8.07l4.86,2.59l0.52,5.51c0.06,0.65,0.69,1.13,1.41,1.07c0.71-0.06,1.26-0.62,1.18-1.27
		l-0.49-5.32l5.1-2.33c0.45-0.21,0.72-0.62,0.72-1.05c0-0.18-0.05-0.36-0.14-0.53c-0.33-0.58-1.1-0.81-1.74-0.52l-5.26,2.4
		l-4.95-2.64l7.85-3.59c0.45-0.21,0.72-0.62,0.72-1.05c0-0.18-0.04-0.36-0.14-0.53c-0.32-0.58-1.1-0.81-1.75-0.52l-9.34,4.27
		l-4.27-2.27l11.61-5.3c0.45-0.21,0.71-0.62,0.71-1.05c0-0.18-0.04-0.36-0.14-0.53c-0.32-0.58-1.11-0.81-1.75-0.52l-10.92,4.99
		l0-32.33l11.57,5.28c0.64,0.29,1.42,0.06,1.74-0.52c0.1-0.17,0.14-0.35,0.14-0.53c0-0.43-0.26-0.84-0.71-1.05l-11.64-5.32
		l4.28-2.27l9.37,4.28c0.64,0.29,1.42,0.06,1.74-0.52c0.1-0.17,0.14-0.35,0.14-0.53c0-0.43-0.26-0.84-0.71-1.05l-7.87-3.6l4.97-2.63
		l5.26,2.4c0.64,0.29,1.42,0.06,1.74-0.52c0.1-0.17,0.14-0.35,0.14-0.53c0-0.43-0.26-0.84-0.71-1.05l-5.11-2.33l0.5-5.32
		c0.08-0.64-0.47-1.22-1.18-1.27c-0.72-0.06-1.35,0.43-1.41,1.07l-0.52,5.5l-4.85,2.57l0.76-8.05c0.06-0.65-0.47-1.22-1.18-1.27
		c-0.72-0.05-1.34,0.42-1.41,1.07l-0.91,9.7l-4.23,2.24l1.11-11.74c0.07-0.65-0.47-1.22-1.18-1.27c-0.72-0.05-1.34,0.42-1.4,1.07
		L98.03,42.7L67.1,26.54l10.78-6.35c0.38-0.23,0.59-0.6,0.59-0.99c0-0.22-0.07-0.44-0.21-0.64c-0.39-0.55-1.19-0.7-1.79-0.35
		l-11.16,6.57v-4.49l9.01-5.3c0.38-0.22,0.59-0.6,0.59-0.99c0-0.22-0.07-0.44-0.21-0.64c-0.39-0.54-1.19-0.7-1.8-0.34l-7.59,4.47
		v-5.22l5.13-3.01c0.38-0.23,0.59-0.6,0.59-0.99c0-0.22-0.06-0.44-0.21-0.64c-0.39-0.54-1.2-0.7-1.8-0.34l-4.79,2.82L59.4,7.04
		C58.81,6.66,58,6.79,57.59,7.32z M62.72,43.14l-2.16,1.13l0,2.6l-10.41,5.44l-2.1-1.1l-2.08,1.08l-14.43-7.68l31.18-16.29
		L62.72,43.14z M62.72,49.2l0,12.02l-11.04-5.88v-2.23l-0.23-0.12l9.26-4.84L62.72,49.2z M50.58,57.48l11.08,5.9l-10.94,5.79
		l-2.69-1.41l-0.17,0.09l0-9.14l0.17,0.09L50.58,57.48z M51.67,73.47V71.4l11.04-5.85l0,12.19l-1.68,0.88l-9.61-5.02L51.67,73.47z
		 M65.31,77.55l0-12.23L75.97,71l0,2.46l0.43,0.23l-9.24,4.83L65.31,77.55z M77.3,68.98l-10.5-5.59l10.72-5.67l2.1,1.09l0.55-0.29
		l0,9.53l-0.55-0.29L77.3,68.98z M75.97,53.11v2.7l-10.66,5.65l0-12.07l2.19-1.14l8.9,4.65L75.97,53.11z M44.4,54.19v2.72l2.17,1.13
		l0,10.49l-2.17,1.13v2.86l-14.5,7.68l0-33.74L44.4,54.19z M46.1,74.35l1.94,1.01l2.1-1.09l10.42,5.45v2.95l2.16,1.13l0,14.47
		l-31.1-16.25L46.1,74.35z M65.31,83.98l2.52-1.32l0-3.13l9.88-5.16l1.91,1l2.3-1.2l14.63,7.79L65.31,98.27L65.31,83.98z
		 M83.25,72.15v-2.48l-1.79-0.93V57.84l1.79-0.93v-2.23l14.88-7.88l0,33.27L83.25,72.15z M82.15,52.54l-2.54-1.33l-1.92,1
		l-9.87-5.16v-2.78l-2.52-1.31l0-14.64L96.8,44.78L82.15,52.54z"/>
	<g class="st2">
		
			<linearGradient id="SVGID_20_" gradientUnits="userSpaceOnUse" x1="58.5923" y1="52.0911" x2="55.133" y2="64.7378" gradientTransform="matrix(0 -1 1 0 -1.989577e-05 128)">
			<stop  offset="0" style="stop-color:#ACF2FF"/>
			<stop  offset="0.3997" style="stop-color:#1BB3FF"/>
			<stop  offset="1" style="stop-color:#004778"/>
		</linearGradient>
		<path class="st23" d="M51.67,73.47l-0.24,0.13l9.61,5.02l1.68-0.88l0-12.19L51.67,71.4V73.47z M59.59,74.59l-3.91-2.04l3.91-2.07
			V74.59z"/>
		
			<linearGradient id="SVGID_21_" gradientUnits="userSpaceOnUse" x1="65.7403" y1="46.7503" x2="61.6597" y2="61.6688" gradientTransform="matrix(0 -1 1 0 -1.989577e-05 128)">
			<stop  offset="0" style="stop-color:#ACF2FF"/>
			<stop  offset="0.3997" style="stop-color:#1BB3FF"/>
			<stop  offset="1" style="stop-color:#004778"/>
		</linearGradient>
		<path class="st24" d="M61.67,63.38l-11.08-5.9l-2.54,1.33l-0.17-0.09l0,9.14l0.17-0.09l2.69,1.41L61.67,63.38z M50.99,60.98
			l4.5,2.4l-4.5,2.38L50.99,60.98z"/>
		
			<linearGradient id="SVGID_22_" gradientUnits="userSpaceOnUse" x1="65.8957" y1="25.3954" x2="59.748" y2="47.8708" gradientTransform="matrix(0 -1 1 0 -1.989577e-05 128)">
			<stop  offset="0" style="stop-color:#ACF2FF"/>
			<stop  offset="0.3997" style="stop-color:#1BB3FF"/>
			<stop  offset="1" style="stop-color:#004778"/>
		</linearGradient>
		<path class="st25" d="M44.4,69.67l2.17-1.13l0-10.49l-2.17-1.13v-2.72l-14.5-7.73l0,33.74l14.5-7.68V69.67z M33.02,51.41l8.26,4.4
			v1.1v1.63l1.56,0.82l0.6,0.32l0,7.23l-0.6,0.32l-1.56,0.82v1.63v1.24l-8.26,4.37L33.02,51.41z"/>
		
			<linearGradient id="SVGID_23_" gradientUnits="userSpaceOnUse" x1="67.386" y1="67.414" x2="63.4234" y2="81.9008" gradientTransform="matrix(0 -1 1 0 -1.989577e-05 128)">
			<stop  offset="0" style="stop-color:#ACF2FF"/>
			<stop  offset="0.3997" style="stop-color:#1BB3FF"/>
			<stop  offset="1" style="stop-color:#004778"/>
		</linearGradient>
		<path class="st26" d="M66.8,63.39l10.5,5.59l2.32-1.21l0.55,0.29l0-9.53l-0.55,0.29l-2.1-1.09L66.8,63.39z M77.04,65.56
			l-4.06-2.17l4.06-2.15L77.04,65.56z"/>
		
			<linearGradient id="SVGID_24_" gradientUnits="userSpaceOnUse" x1="69.2536" y1="80.9834" x2="63.0944" y2="103.5009" gradientTransform="matrix(0 -1 1 0 -1.989577e-05 128)">
			<stop  offset="0" style="stop-color:#ACF2FF"/>
			<stop  offset="0.3997" style="stop-color:#1BB3FF"/>
			<stop  offset="1" style="stop-color:#004778"/>
		</linearGradient>
		<path class="st27" d="M83.25,56.91l-1.79,0.93v10.89l1.79,0.93v2.48l14.88,7.92l0-33.27l-14.88,7.88V56.91z M95,75.13l-8.63-4.6
			v-0.86l0-1.63l-1.57-0.81l-0.23-0.12l0-7.62l0.23-0.12l1.57-0.81v-1.64V56.3L95,51.73L95,75.13z"/>
		
			<linearGradient id="SVGID_25_" gradientUnits="userSpaceOnUse" x1="93.2724" y1="33.9353" x2="84.9404" y2="64.3964" gradientTransform="matrix(0 -1 1 0 -1.989577e-05 128)">
			<stop  offset="0" style="stop-color:#ACF2FF"/>
			<stop  offset="0.3997" style="stop-color:#1BB3FF"/>
			<stop  offset="1" style="stop-color:#004778"/>
		</linearGradient>
		<path class="st28" d="M45.97,52.3l2.08-1.08l2.1,1.1l10.41-5.44l0-2.6l2.16-1.13l0-14.82L31.54,44.61L45.97,52.3z M59.59,41.51
			l-0.6,0.31l-1.56,0.81v1.63v0.97l-7.29,3.81l-0.54-0.28l-1.56-0.82l-1.56,0.82l-0.5,0.26l-8.24-4.39l21.85-11.42L59.59,41.51z"/>
		
			<linearGradient id="SVGID_26_" gradientUnits="userSpaceOnUse" x1="90.2321" y1="62.3692" x2="80.4874" y2="97.995" gradientTransform="matrix(0 -1 1 0 -1.989577e-05 128)">
			<stop  offset="0" style="stop-color:#ACF2FF"/>
			<stop  offset="0.3997" style="stop-color:#1BB3FF"/>
			<stop  offset="1" style="stop-color:#004778"/>
		</linearGradient>
		<path class="st29" d="M67.83,44.27v2.78l9.87,5.16l1.92-1l2.54,1.33l14.65-7.76L65.31,28.32l0,14.64L67.83,44.27z M69.39,41.82
			l-0.95-0.5l0-8.1l22.15,11.57l-8.44,4.47l-0.96-0.5l-1.56-0.82l-1.56,0.82l-0.35,0.19l-6.75-3.52v-1.15v-1.63L69.39,41.82z"/>
		
			<linearGradient id="SVGID_27_" gradientUnits="userSpaceOnUse" x1="81.3323" y1="0.4016" x2="45.4008" y2="131.764" gradientTransform="matrix(0 -1 1 0 -1.989577e-05 128)">
			<stop  offset="0" style="stop-color:#ACF2FF"/>
			<stop  offset="0.3997" style="stop-color:#1BB3FF"/>
			<stop  offset="1" style="stop-color:#004778"/>
		</linearGradient>
		<path class="st30" d="M64.3,6.69l-3.1-1.97c-2-1.26-4.76-0.82-6.16,0.98c-0.53,0.68-0.8,1.47-0.8,2.3c0,0.54,0.12,1.07,0.35,1.56
			c-0.15,0.01-0.31,0.03-0.47,0.05c-1.16,0.18-2.18,0.77-2.86,1.65c-0.52,0.68-0.8,1.47-0.8,2.29c0,0.43,0.08,0.86,0.23,1.26
			c-1.07,0.2-2.07,0.75-2.75,1.62c-0.53,0.68-0.8,1.47-0.8,2.3c0,1.3,0.7,2.52,1.87,3.27l6.49,4.12L33.3,37.71l-0.18-7.3
			c-0.02-1.07-0.51-2.06-1.36-2.8c-0.85-0.74-1.97-1.14-3.16-1.11c-1.34,0.03-2.51,0.57-3.3,1.41c-0.84-0.89-2.09-1.44-3.47-1.41
			c-1.5,0.03-2.83,0.75-3.6,1.81c-0.74-1.05-2.02-1.77-3.5-1.84c-2.43-0.12-4.52,1.58-4.65,3.78l-0.22,3.68l-3.19,1.24
			C5.06,35.79,4,37.23,4,38.84c0,0.55,0.12,1.08,0.36,1.58c0.61,1.31,1.92,2.16,3.38,2.37c-0.34,0.57-0.52,1.21-0.52,1.88
			c0,0.55,0.12,1.09,0.37,1.59c0.56,1.19,1.71,2.01,3.02,2.3c-0.18,0.44-0.28,0.91-0.28,1.4c0,0.55,0.12,1.08,0.36,1.58
			c0.97,2.02,3.57,2.96,5.81,2.09l7.68-2.97l0,24.72l-7.68-2.98c-2.24-0.87-4.84,0.08-5.8,2.1c-0.24,0.5-0.36,1.03-0.36,1.58
			c0,0.49,0.1,0.96,0.28,1.4c-0.2,0.05-0.41,0.1-0.61,0.18c-1.1,0.4-1.96,1.16-2.42,2.14c-0.23,0.48-0.36,1.02-0.36,1.57
			c0,0.67,0.18,1.31,0.52,1.88c-0.32,0.05-0.65,0.13-0.96,0.24c-1.1,0.4-1.95,1.16-2.42,2.14C4.12,86.14,4,86.68,4,87.23
			c0,1.61,1.06,3.05,2.69,3.68l3.19,1.23l0.22,3.68c0.13,2.21,2.22,3.9,4.66,3.78c1.47-0.07,2.74-0.79,3.49-1.84
			c0.77,1.06,2.1,1.78,3.61,1.81c1.37,0.03,2.63-0.52,3.46-1.4c0.79,0.84,1.96,1.38,3.3,1.4c1.18,0.02,2.3-0.37,3.15-1.11
			c0.86-0.74,1.34-1.74,1.36-2.81l0.17-6.79l23.49,12.27l-7.63,4.82c-1.18,0.74-1.89,1.97-1.89,3.28c0,0.82,0.27,1.61,0.79,2.28
			c0.67,0.86,1.64,1.44,2.76,1.65c-0.15,0.4-0.23,0.83-0.23,1.26c0,0.82,0.28,1.61,0.8,2.29c0.8,1.03,2.04,1.62,3.33,1.7
			c-0.23,0.49-0.35,1.02-0.35,1.57c0,0.81,0.27,1.6,0.78,2.27c1.42,1.83,4.18,2.27,6.18,1.01l2.84-1.79l3.57,1.78
			c2.13,1.06,4.83,0.36,6.01-1.57c0.36-0.61,0.55-1.27,0.55-1.93c0-0.61-0.15-1.2-0.43-1.72c0.27,0,0.54-0.03,0.81-0.09
			c1.16-0.22,2.15-0.83,2.8-1.72c0.48-0.68,0.72-1.43,0.72-2.19c0-0.43-0.08-0.84-0.21-1.24c1.21-0.16,2.34-0.77,3.06-1.76
			c0.48-0.68,0.72-1.43,0.72-2.2c0-1.36-0.75-2.61-2-3.35l-7.87-4.65l22.85-11.94L95.39,96c0.21,2.19,2.35,3.83,4.77,3.65
			c1.19-0.09,2.22-0.59,2.95-1.33c0.89,0.91,2.23,1.44,3.67,1.33c1.4-0.11,2.59-0.78,3.31-1.75c0.88,1.06,2.33,1.69,3.9,1.57
			c2.27-0.18,4.05-1.92,4.05-3.96c0-0.13-0.01-0.26-0.02-0.39l-0.32-3.39l3.22-1.47c1.5-0.68,2.43-2.05,2.43-3.58
			c0-0.63-0.17-1.27-0.5-1.83c-0.71-1.27-2.09-2.05-3.58-2.16c0.36-0.58,0.55-1.24,0.55-1.93c0-0.62-0.16-1.24-0.47-1.8
			c-0.63-1.12-1.76-1.86-3.02-2.11c0.2-0.46,0.32-0.97,0.32-1.49c0-0.62-0.16-1.24-0.47-1.79c-0.54-0.97-1.45-1.67-2.57-2.01
			c-1.13-0.33-2.33-0.25-3.38,0.23l-6.39,2.92l0-23.14l7.04,3.21c1.05,0.48,2.25,0.57,3.37,0.23c1.12-0.33,2.03-1.04,2.56-2
			c0.3-0.53,0.48-1.17,0.48-1.81c0-0.52-0.11-1.03-0.31-1.49c1.26-0.25,2.39-0.99,3.01-2.11c0.31-0.54,0.48-1.16,0.48-1.8
			c0-0.69-0.19-1.35-0.54-1.93c0.35-0.03,0.7-0.09,1.04-0.19c1.13-0.34,2.04-1.05,2.56-2.01c0.31-0.55,0.47-1.17,0.47-1.79
			c0-1.52-0.93-2.89-2.42-3.57l-3.23-1.47l0.32-3.42c0.01-0.08,0.02-0.22,0.02-0.35c0-2.05-1.77-3.79-4.05-3.97
			c-1.57-0.12-3.03,0.52-3.92,1.59c-0.72-0.98-1.92-1.66-3.29-1.76c-1.45-0.11-2.79,0.43-3.69,1.34c-0.74-0.75-1.77-1.25-2.94-1.34
			c-1.18-0.09-2.33,0.24-3.23,0.93c-0.9,0.69-1.45,1.66-1.55,2.73l-0.7,7.44L73.07,26.4l6.52-3.84c1.26-0.74,2.01-1.99,2.01-3.36
			c0-0.78-0.25-1.53-0.72-2.19c-0.63-0.88-1.62-1.5-2.78-1.73c-0.1-0.02-0.18-0.03-0.28-0.04c0.14-0.4,0.22-0.81,0.22-1.24
			c0-0.78-0.25-1.53-0.72-2.18c-0.82-1.15-2.19-1.78-3.6-1.81c0.28-0.53,0.43-1.12,0.43-1.74c0-0.78-0.25-1.54-0.71-2.18
			c-1.33-1.85-4.08-2.37-6.12-1.17L64.3,6.69z M59.4,7.04l4.83,3.07l4.79-2.82c0.6-0.35,1.41-0.2,1.8,0.34
			c0.14,0.2,0.21,0.42,0.21,0.64c0,0.39-0.2,0.76-0.59,0.99l-5.13,3.01v5.22l7.59-4.47c0.6-0.35,1.4-0.2,1.8,0.34
			c0.14,0.2,0.21,0.42,0.21,0.64c0,0.39-0.21,0.76-0.59,0.99l-9.01,5.3v4.49l11.16-6.57c0.6-0.35,1.41-0.2,1.79,0.35
			c0.14,0.2,0.21,0.42,0.21,0.64c0,0.38-0.21,0.76-0.59,0.99L67.1,26.54L98.03,42.7l1.12-11.89c0.06-0.65,0.69-1.13,1.4-1.07
			c0.67,0.05,1.19,0.56,1.19,1.15c0,0.04,0,0.08-0.01,0.12l-1.11,11.74l4.23-2.24l0.91-9.7c0.07-0.65,0.69-1.13,1.41-1.07
			c0.68,0.05,1.19,0.57,1.19,1.17c0,0.03,0,0.07,0,0.1l-0.76,8.05l4.85-2.57l0.52-5.5c0.06-0.65,0.69-1.13,1.41-1.07
			c0.67,0.05,1.18,0.56,1.18,1.15c0,0.04,0,0.08-0.01,0.12l-0.5,5.32l5.11,2.33c0.45,0.21,0.71,0.62,0.71,1.05
			c0,0.18-0.05,0.36-0.14,0.53c-0.32,0.58-1.1,0.81-1.74,0.52l-5.26-2.4l-4.97,2.63l7.87,3.6c0.46,0.21,0.71,0.62,0.71,1.05
			c0,0.18-0.04,0.36-0.14,0.53c-0.32,0.58-1.1,0.81-1.74,0.52l-9.37-4.28l-4.28,2.27l11.64,5.32c0.45,0.21,0.71,0.62,0.71,1.05
			c0,0.18-0.04,0.36-0.14,0.53c-0.33,0.58-1.11,0.81-1.74,0.52l-11.57-5.28l0,32.33l10.92-4.99c0.64-0.29,1.42-0.06,1.75,0.52
			c0.09,0.17,0.14,0.35,0.14,0.53c0,0.43-0.26,0.85-0.71,1.05l-11.61,5.3l4.27,2.27l9.34-4.27c0.64-0.3,1.42-0.06,1.75,0.52
			c0.1,0.17,0.14,0.35,0.14,0.53c0,0.43-0.26,0.84-0.72,1.05l-7.85,3.59l4.95,2.64l5.26-2.4c0.64-0.29,1.42-0.06,1.74,0.52
			c0.1,0.17,0.14,0.35,0.14,0.53c0,0.43-0.26,0.84-0.72,1.05l-5.1,2.33l0.49,5.32c0.01,0.04,0.01,0.08,0.01,0.12
			c0,0.6-0.52,1.09-1.19,1.14c-0.72,0.06-1.35-0.42-1.41-1.07l-0.52-5.51l-4.86-2.59l0.76,8.07c0.01,0.04,0.01,0.07,0.01,0.11
			c0,0.61-0.52,1.11-1.19,1.16c-0.71,0.05-1.34-0.42-1.4-1.07l-0.92-9.73l-4.22-2.25l1.11,11.78c0,0.03,0.01,0.07,0.01,0.1
			c0,0.61-0.51,1.12-1.19,1.18c-0.72,0.05-1.34-0.42-1.4-1.07l-1.09-11.55L65.9,100.68l12.13,7.17c0.38,0.22,0.59,0.6,0.59,0.98
			c0,0.22-0.07,0.45-0.21,0.64c-0.39,0.54-1.2,0.7-1.8,0.34l-11.29-6.68v4.5l9.14,5.41c0.38,0.23,0.59,0.61,0.59,0.99
			c0,0.22-0.07,0.44-0.21,0.64c-0.39,0.54-1.2,0.69-1.8,0.34l-7.72-4.57l0,5.71l5.15,2.57c0.43,0.21,0.67,0.61,0.67,1.03
			c0,0.19-0.05,0.39-0.16,0.57c-0.35,0.57-1.14,0.78-1.77,0.46l-5.27-2.63l-4.44,2.81c-0.59,0.37-1.4,0.24-1.81-0.29
			c-0.15-0.2-0.23-0.44-0.23-0.67c0-0.37,0.19-0.74,0.55-0.97l4.7-2.97v-5.08l-6.98,4.41c-0.59,0.37-1.4,0.24-1.81-0.29
			c-0.16-0.21-0.23-0.44-0.23-0.67c0-0.37,0.19-0.74,0.55-0.97l8.47-5.35l0-4.42l-10.3,6.51c-0.59,0.37-1.4,0.24-1.81-0.29
			c-0.16-0.21-0.23-0.44-0.23-0.67c0-0.37,0.2-0.73,0.55-0.96l11.66-7.37L30.28,84.04L30,95.6c-0.01,0.65-0.61,1.16-1.33,1.15
			c-0.69-0.01-1.27-0.47-1.27-1.14c0-0.02,0-0.04,0-0.07l0.28-11.44l-4.22,2.23l-0.22,9.26c-0.02,0.65-0.61,1.16-1.33,1.15
			c-0.69-0.01-1.27-0.52-1.27-1.15c0-0.02,0-0.04,0-0.05l0.19-7.81l-5.32,2.82l0.29,5c0,0.02,0,0.04,0,0.06
			c0,0.62-0.54,1.14-1.23,1.17c-0.72,0.04-1.33-0.46-1.37-1.11l-0.32-5.44l-4.98-1.93c-0.49-0.19-0.79-0.62-0.79-1.08
			c0-0.16,0.03-0.31,0.11-0.46c0.28-0.6,1.05-0.88,1.71-0.62l5.63,2.18l4.94-2.62l-8.37-3.24c-0.49-0.19-0.79-0.62-0.79-1.08
			c0-0.16,0.04-0.31,0.11-0.47c0.28-0.6,1.04-0.87,1.7-0.62l10.14,3.92l4.29-2.27l-12.35-4.78c-0.49-0.19-0.79-0.63-0.79-1.08
			c0-0.15,0.03-0.31,0.11-0.46c0.28-0.59,1.05-0.87,1.7-0.62l12.04,4.66l0-33.29l-12.04,4.66c-0.65,0.25-1.42-0.02-1.7-0.62
			c-0.07-0.15-0.11-0.3-0.11-0.46c0-0.46,0.3-0.89,0.79-1.08l11.7-4.53l-4.28-2.28l-9.51,3.68c-0.66,0.25-1.42-0.02-1.7-0.62
			c-0.07-0.15-0.11-0.31-0.11-0.47c0-0.45,0.29-0.89,0.79-1.08l7.75-3l-4.72-2.51c-0.06-0.03-0.1-0.09-0.15-0.12l-5.07,1.96
			c-0.66,0.25-1.42-0.02-1.71-0.62C7.16,39.15,7.12,39,7.12,38.84c0-0.45,0.3-0.89,0.79-1.08l4.98-1.93l0.32-5.44
			c0.04-0.65,0.65-1.14,1.37-1.11c0.69,0.03,1.23,0.55,1.23,1.17c0,0.02,0,0.04,0,0.06l-0.33,5.54l5.37,2.86l-0.21-8.4
			c0-0.01,0-0.03,0-0.05c0-0.6,0.57-1.14,1.27-1.15c0.72-0.02,1.31,0.5,1.33,1.15l0.24,9.85l4.22,2.24L27.4,30.52
			c0-0.02,0-0.04,0-0.05c0-0.64,0.58-1.13,1.27-1.15c0.71-0.01,1.31,0.5,1.33,1.15l0.3,12.08l30.98-16.19l-10.49-6.66
			c-0.36-0.23-0.55-0.6-0.55-0.97c0-0.23,0.07-0.46,0.23-0.67c0.41-0.53,1.22-0.66,1.81-0.29l10.43,6.63l0-4.43l-8.59-5.46
			c-0.36-0.23-0.55-0.59-0.55-0.96c0-0.23,0.08-0.47,0.24-0.67c0.41-0.53,1.22-0.66,1.81-0.29l7.1,4.51l0-5.08l-4.81-3.05
			c-0.36-0.23-0.55-0.6-0.55-0.97c0-0.23,0.08-0.47,0.23-0.68C58,6.79,58.81,6.66,59.4,7.04z"/>
		
			<linearGradient id="SVGID_28_" gradientUnits="userSpaceOnUse" x1="73.8435" y1="63.8826" x2="70.4811" y2="76.1752" gradientTransform="matrix(0 -1 1 0 -1.989577e-05 128)">
			<stop  offset="0" style="stop-color:#ACF2FF"/>
			<stop  offset="0.3997" style="stop-color:#1BB3FF"/>
			<stop  offset="1" style="stop-color:#004778"/>
		</linearGradient>
		<path class="st31" d="M75.97,53.11l0.42-0.22l-8.9-4.65l-2.19,1.14l0,12.07l10.66-5.65V53.11z M68.44,52l4.3,2.25l-4.3,2.28V52z"
			/>
		
			<linearGradient id="SVGID_29_" gradientUnits="userSpaceOnUse" x1="76.085" y1="51.6019" x2="72.4238" y2="64.9869" gradientTransform="matrix(0 -1 1 0 -1.989577e-05 128)">
			<stop  offset="0" style="stop-color:#ACF2FF"/>
			<stop  offset="0.3997" style="stop-color:#1BB3FF"/>
			<stop  offset="1" style="stop-color:#004778"/>
		</linearGradient>
		<path class="st32" d="M51.44,52.99l0.23,0.12v2.23l11.04,5.88l0-12.02l-2.01-1.05L51.44,52.99z M59.59,56.27l-4.05-2.16l4.05-2.12
			V56.27z"/>
		
			<linearGradient id="SVGID_30_" gradientUnits="userSpaceOnUse" x1="56.8051" y1="63.5732" x2="53.1809" y2="76.8231" gradientTransform="matrix(0 -1 1 0 -1.989577e-05 128)">
			<stop  offset="0" style="stop-color:#ACF2FF"/>
			<stop  offset="0.3997" style="stop-color:#1BB3FF"/>
			<stop  offset="1" style="stop-color:#004778"/>
		</linearGradient>
		<path class="st33" d="M75.97,73.47l0-2.46l-10.66-5.68l0,12.23l1.85,0.97l9.24-4.83L75.97,73.47z M68.44,70.27l4.1,2.18l-4.1,2.14
			V70.27z"/>
		
			<linearGradient id="SVGID_31_" gradientUnits="userSpaceOnUse" x1="44.1279" y1="65.0363" x2="35.8247" y2="95.3921" gradientTransform="matrix(0 -1 1 0 -1.989577e-05 128)">
			<stop  offset="0" style="stop-color:#ACF2FF"/>
			<stop  offset="0.3997" style="stop-color:#1BB3FF"/>
			<stop  offset="1" style="stop-color:#004778"/>
		</linearGradient>
		<path class="st34" d="M79.61,75.37l-1.91-1l-9.88,5.16l0,3.13l-2.52,1.32l0,14.29l31.22-16.32l-14.63-7.79L79.61,75.37z
			 M90.33,81.93l-21.9,11.44v-7.76l0.95-0.5l1.56-0.82v-1.63v-1.5l6.76-3.53l0.34,0.18l1.56,0.81l1.56-0.81l0.72-0.38L90.33,81.93z"
			/>
		
			<linearGradient id="SVGID_32_" gradientUnits="userSpaceOnUse" x1="48.4277" y1="31.9318" x2="38.8045" y2="67.1131" gradientTransform="matrix(0 -1 1 0 -1.989577e-05 128)">
			<stop  offset="0" style="stop-color:#ACF2FF"/>
			<stop  offset="0.3997" style="stop-color:#1BB3FF"/>
			<stop  offset="1" style="stop-color:#004778"/>
		</linearGradient>
		<path class="st35" d="M60.55,82.67v-2.95l-10.42-5.45l-2.1,1.09l-1.94-1.01l-14.48,7.67l31.1,16.25l0-14.47L60.55,82.67z
			 M58.99,85.12l0.6,0.31l0,7.94L37.84,82l8.27-4.38l0.37,0.19l1.56,0.82l1.56-0.81l0.54-0.28l7.29,3.81v1.32v1.63L58.99,85.12z"/>
	</g>
</g>
<g>
	<g>
		<g>
			
				<radialGradient id="SVGID_33_" cx="740.8392" cy="-605.4514" r="157.1221" gradientTransform="matrix(0.7239 -0.7652 0.769 0.7275 -87.4537 991.4133)" gradientUnits="userSpaceOnUse">
				<stop  offset="0.5824" style="stop-color:#FCEA10"/>
				<stop  offset="0.6589" style="stop-color:#FBDC18"/>
				<stop  offset="0.8017" style="stop-color:#F9B92F"/>
				<stop  offset="0.8259" style="stop-color:#F9B233"/>
				<stop  offset="0.8775" style="stop-color:#F9B531"/>
				<stop  offset="0.9207" style="stop-color:#FAC02A"/>
				<stop  offset="0.9608" style="stop-color:#FBD120"/>
				<stop  offset="0.999" style="stop-color:#FCE910"/>
				<stop  offset="1" style="stop-color:#FCEA10"/>
			</radialGradient>
			<path class="st36" d="M13.09,117.94C12.18,118.08,115.75,9.21,114.9,10.12c0.86-0.9,2.46,1.92,3.29,3.45
				c9.47,13.96,2.94,56.75-21.58,81.04c-22.85,25.87-65.18,34.84-79.67,26.19C15.54,120.14,13,118.86,13.09,117.94z"/>
			
				<radialGradient id="SVGID_34_" cx="735.2344" cy="-579.4896" r="103.5352" gradientTransform="matrix(0.7239 -0.7652 0.769 0.7275 -87.4537 991.4133)" gradientUnits="userSpaceOnUse">
				<stop  offset="0.467" style="stop-color:#FCEA10"/>
				<stop  offset="0.9137" style="stop-color:#FABC2D"/>
				<stop  offset="1" style="stop-color:#F9B233"/>
			</radialGradient>
			<path class="st37" d="M12.84,117.95C12.75,118.87,115.71,9.43,114.85,10.32c0.85-0.9-2.06-2.34-3.63-3.09
				C96.75-1.45,54.4,7.44,31.5,33.26c-24.57,24.24-31.17,67.01-21.73,81C10.51,115.63,11.93,118.09,12.84,117.95z"/>
		</g>
		
			<linearGradient id="SVGID_35_" gradientUnits="userSpaceOnUse" x1="754.9604" y1="-539.4637" x2="754.9604" y2="-534.4387" gradientTransform="matrix(0.6872 -0.7264 0.7264 0.6872 -65.5113 980.8044)">
			<stop  offset="0" style="stop-color:#F9B233"/>
			<stop  offset="0.1993" style="stop-color:#F6A51E"/>
			<stop  offset="0.4269" style="stop-color:#F59A0D"/>
			<stop  offset="0.6789" style="stop-color:#F39403"/>
			<stop  offset="1" style="stop-color:#F39200"/>
		</linearGradient>
		<path class="st38" d="M11.77,117.32c0.39,0.41,0.76,0.68,1.07,0.63c-0.01,0.06,0.07,0.13,0.13,0.12
			c-0.04,0.36,0.33,0.77,0.88,1.19c5.31-6.31,27.71-32.06,50.74-56.39c22.86-24.16,46.35-46.87,51.7-51.98
			c-0.47-0.57-0.94-0.93-1.31-0.77c0.12-0.36-0.2-0.77-0.73-1.19c-5.38,5.05-29.05,27.62-51.93,51.79
			C39.26,85.07,17,110.98,11.77,117.32z"/>
		
			<linearGradient id="SVGID_36_" gradientUnits="userSpaceOnUse" x1="754.9603" y1="-537.2939" x2="754.9603" y2="-534.5546" gradientTransform="matrix(0.6872 -0.7264 0.7264 0.6872 -65.5113 980.8044)">
			<stop  offset="0" style="stop-color:#F9B233"/>
			<stop  offset="0.3877" style="stop-color:#F7A822"/>
			<stop  offset="1" style="stop-color:#F39200"/>
		</linearGradient>
		<path class="st39" d="M114.99,9.89c-5.46,5.42-28.4,28.35-51.1,52.33c-22.81,24.11-45.4,49.26-51.1,55.73c0.01,0,0.03,0,0.05,0
			c-0.01,0.06,0.07,0.13,0.13,0.12c-0.03,0.34,0.3,0.73,0.79,1.12c5.45-6.14,28.34-31.45,51.38-55.8
			c22.87-24.17,45.89-47.35,51.1-52.56c-0.46-0.53-0.9-0.86-1.26-0.71C115,10.05,115,9.97,114.99,9.89z"/>
		<g>
			
				<linearGradient id="SVGID_37_" gradientUnits="userSpaceOnUse" x1="807.0591" y1="-502.7905" x2="807.0591" y2="-558.835" gradientTransform="matrix(0.6872 -0.7264 0.7264 0.6872 -65.5113 980.8044)">
				<stop  offset="0" style="stop-color:#B6AA87"/>
				<stop  offset="0.1538" style="stop-color:#CDC5AD"/>
				<stop  offset="0.3287" style="stop-color:#E3DED0"/>
				<stop  offset="0.493" style="stop-color:#F2F0EA"/>
				<stop  offset="0.6409" style="stop-color:#FCFBFA"/>
				<stop  offset="0.7582" style="stop-color:#FFFFFF"/>
				<stop  offset="0.8372" style="stop-color:#FDFDFB"/>
				<stop  offset="0.9178" style="stop-color:#F8F5EF"/>
				<stop  offset="0.9988" style="stop-color:#EFE9DA"/>
				<stop  offset="1" style="stop-color:#EFE9DA"/>
			</linearGradient>
			<path class="st40" d="M102.33,18.82C96.31,13.13,89.26,8.54,83.34,5.18c-4.1,0.75-8.37,1.83-12.7,3.26
				c1.77,0.84,4.14,2,6.84,3.49c5.83,3.19,13.12,7.81,18.85,13.23c1.78,1.68,1.78,1.68,4.53,4.28c5.73,5.42,10.77,12.43,14.28,18.06
				c1.64,2.62,2.95,4.91,3.88,6.63c1.18-4.4,2.02-8.72,2.53-12.86c-3.7-5.72-8.69-12.48-14.7-18.17
				C104.26,20.64,104.26,20.64,102.33,18.82z"/>
			
				<linearGradient id="SVGID_38_" gradientUnits="userSpaceOnUse" x1="1045.9409" y1="-502.7886" x2="1045.9409" y2="-558.8331" gradientTransform="matrix(-0.6872 0.7264 0.7264 0.6872 1136.3237 -289.5702)">
				<stop  offset="0" style="stop-color:#B6AA87"/>
				<stop  offset="0.1538" style="stop-color:#CDC5AD"/>
				<stop  offset="0.3287" style="stop-color:#E3DED0"/>
				<stop  offset="0.493" style="stop-color:#F2F0EA"/>
				<stop  offset="0.6409" style="stop-color:#FCFBFA"/>
				<stop  offset="0.7582" style="stop-color:#FFFFFF"/>
				<stop  offset="0.8372" style="stop-color:#FDFDFB"/>
				<stop  offset="0.9178" style="stop-color:#F8F5EF"/>
				<stop  offset="0.9988" style="stop-color:#EFE9DA"/>
				<stop  offset="1" style="stop-color:#EFE9DA"/>
			</linearGradient>
			<path class="st41" d="M25.47,109.13c6.01,5.69,13.04,10.29,18.96,13.67c4.1-0.74,8.37-1.82,12.7-3.24
				c-1.77-0.84-4.13-2.01-6.83-3.5c-5.82-3.2-13.1-7.84-18.83-13.26c-2.75-2.6-2.75-2.6-4.53-4.29
				C21.21,93.1,16.2,86.06,12.69,80.43c-1.64-2.62-2.93-4.92-3.86-6.64c-1.19,4.4-2.03,8.72-2.55,12.85
				c3.69,5.73,8.66,12.51,14.67,18.2C22.87,106.66,22.87,106.67,25.47,109.13z"/>
		</g>
		<g>
			<g>
				<path class="st42" d="M36.85,79.14c-1.15-1.09-2.97-1.05-4.05,0.1c-1.09,1.15-1.03,2.96,0.12,4.05c1.15,1.09,2.97,1.04,4.05-0.1
					C38.06,82.04,38,80.23,36.85,79.14z"/>
				<path class="st42" d="M42.99,72.4c-1.15-1.09-2.97-1.05-4.05,0.1c-1.09,1.15-1.03,2.96,0.12,4.05c1.15,1.09,2.97,1.05,4.05-0.1
					C44.2,75.3,44.14,73.49,42.99,72.4z"/>
				<path class="st42" d="M49.25,65.77c-1.15-1.09-2.97-1.05-4.05,0.1c-1.08,1.15-1.03,2.96,0.12,4.06
					c1.15,1.09,2.97,1.04,4.05-0.11C50.46,68.68,50.4,66.86,49.25,65.77z"/>
				<path class="st42" d="M55.52,59.15c-1.15-1.09-2.97-1.04-4.06,0.11c-1.08,1.15-1.03,2.96,0.12,4.05
					c1.15,1.09,2.97,1.04,4.05-0.1C56.73,62.05,56.67,60.24,55.52,59.15z"/>
				<path class="st42" d="M61.79,52.53c-1.15-1.09-2.97-1.05-4.05,0.1c-1.09,1.15-1.03,2.96,0.12,4.06
					c1.15,1.09,2.97,1.04,4.06-0.11C62.99,55.43,62.93,53.62,61.79,52.53z"/>
				<path class="st42" d="M68.05,45.91c-1.15-1.09-2.97-1.05-4.05,0.1c-1.08,1.15-1.03,2.96,0.12,4.05c1.15,1.09,2.97,1.04,4.05-0.1
					C69.26,48.81,69.2,46.99,68.05,45.91z"/>
				<path class="st42" d="M74.31,39.28c-1.15-1.09-2.97-1.05-4.05,0.1c-1.08,1.15-1.03,2.96,0.12,4.05c1.15,1.09,2.97,1.04,4.05-0.1
					C75.52,42.19,75.47,40.37,74.31,39.28z"/>
				<path class="st42" d="M80.58,32.66c-1.15-1.09-2.97-1.04-4.06,0.1c-1.08,1.15-1.03,2.96,0.12,4.06c1.15,1.09,2.97,1.04,4.05-0.1
					C81.79,35.56,81.73,33.75,80.58,32.66z"/>
			</g>
			<g>
				<path class="st42" d="M50.49,92.04c-1.15-1.09-2.97-1.05-4.05,0.1c-1.08,1.15-1.03,2.96,0.12,4.05c1.15,1.09,2.97,1.04,4.05-0.1
					C51.7,94.95,51.64,93.13,50.49,92.04z"/>
				<path class="st42" d="M56.63,85.3c-1.15-1.09-2.97-1.05-4.05,0.1c-1.09,1.15-1.03,2.96,0.12,4.05c1.15,1.09,2.97,1.05,4.05-0.1
					C57.84,88.2,57.78,86.39,56.63,85.3z"/>
				<path class="st42" d="M62.89,78.68c-1.15-1.09-2.96-1.05-4.05,0.1c-1.08,1.15-1.03,2.96,0.12,4.05c1.15,1.09,2.97,1.04,4.05-0.1
					C64.1,81.58,64.05,79.77,62.89,78.68z"/>
				<path class="st42" d="M69.16,72.05c-1.15-1.09-2.97-1.05-4.06,0.1c-1.09,1.15-1.03,2.96,0.12,4.05c1.15,1.09,2.97,1.05,4.05-0.1
					C70.37,74.96,70.31,73.14,69.16,72.05z"/>
				<path class="st42" d="M75.42,65.43c-1.15-1.09-2.97-1.05-4.05,0.1c-1.09,1.15-1.03,2.96,0.12,4.05c1.15,1.09,2.97,1.04,4.05-0.1
					C76.63,68.34,76.58,66.52,75.42,65.43z"/>
				<path class="st42" d="M81.69,58.81c-1.15-1.09-2.97-1.04-4.06,0.1c-1.08,1.15-1.03,2.96,0.12,4.05c1.15,1.09,2.97,1.04,4.05-0.1
					C82.9,61.71,82.84,59.9,81.69,58.81z"/>
				<path class="st42" d="M87.95,52.19c-1.15-1.09-2.97-1.05-4.05,0.1c-1.09,1.15-1.03,2.96,0.12,4.05c1.15,1.09,2.97,1.05,4.06-0.1
					C89.16,55.09,89.11,53.28,87.95,52.19z"/>
				<path class="st42" d="M94.22,45.56c-1.16-1.09-2.97-1.05-4.06,0.1c-1.08,1.15-1.03,2.96,0.12,4.05c1.15,1.09,2.97,1.04,4.05-0.1
					C95.43,48.47,95.37,46.65,94.22,45.56z"/>
			</g>
		</g>
		<g>
			<path class="st43" d="M36.87,79.75c-0.98-0.93-2.53-0.89-3.45,0.09c-0.92,0.98-0.88,2.52,0.1,3.45c0.98,0.93,2.52,0.89,3.45-0.09
				C37.9,82.22,37.85,80.68,36.87,79.75z"/>
			<path class="st43" d="M43.01,73c-0.98-0.93-2.53-0.89-3.45,0.09c-0.92,0.98-0.88,2.52,0.1,3.45c0.98,0.93,2.52,0.89,3.45-0.09
				C44.03,75.48,43.99,73.93,43.01,73z"/>
			<path class="st43" d="M49.28,66.38c-0.98-0.93-2.52-0.89-3.45,0.09c-0.92,0.97-0.87,2.52,0.11,3.44
				c0.98,0.93,2.52,0.89,3.44-0.09C50.3,68.85,50.26,67.31,49.28,66.38z"/>
			<path class="st43" d="M55.54,59.76c-0.98-0.93-2.52-0.89-3.45,0.09c-0.92,0.97-0.88,2.52,0.11,3.45
				c0.98,0.93,2.52,0.89,3.44-0.09C56.57,62.23,56.52,60.69,55.54,59.76z"/>
			<path class="st43" d="M61.8,53.14c-0.98-0.93-2.52-0.89-3.44,0.09c-0.92,0.97-0.87,2.52,0.11,3.45c0.98,0.93,2.52,0.89,3.44-0.09
				C62.84,55.6,62.79,54.07,61.8,53.14z"/>
			<path class="st43" d="M68.07,46.52c-0.98-0.93-2.52-0.89-3.45,0.09c-0.92,0.97-0.87,2.52,0.11,3.44
				c0.98,0.93,2.52,0.89,3.44-0.09C69.1,48.98,69.05,47.44,68.07,46.52z"/>
			<path class="st43" d="M74.34,39.89c-0.98-0.93-2.52-0.89-3.45,0.09c-0.92,0.97-0.87,2.52,0.11,3.44
				c0.98,0.93,2.52,0.89,3.44-0.09C75.36,42.36,75.31,40.82,74.34,39.89z"/>
			<path class="st43" d="M80.6,33.27c-0.98-0.93-2.53-0.89-3.45,0.08c-0.92,0.98-0.87,2.52,0.11,3.45c0.98,0.93,2.52,0.89,3.45-0.09
				C81.63,35.74,81.58,34.2,80.6,33.27z"/>
		</g>
		<g>
			<path class="st43" d="M50.36,92.5c-0.98-0.93-2.53-0.89-3.45,0.09c-0.92,0.98-0.88,2.52,0.1,3.45c0.98,0.93,2.52,0.88,3.45-0.09
				C51.38,94.97,51.34,93.43,50.36,92.5z"/>
			<path class="st43" d="M56.49,85.76c-0.98-0.93-2.53-0.89-3.45,0.09c-0.92,0.98-0.88,2.52,0.11,3.45
				c0.98,0.93,2.52,0.89,3.45-0.09C57.52,88.23,57.48,86.69,56.49,85.76z"/>
			<path class="st43" d="M62.76,79.14c-0.98-0.93-2.52-0.89-3.45,0.09c-0.92,0.97-0.87,2.52,0.11,3.44
				c0.98,0.93,2.52,0.89,3.44-0.08C63.78,81.61,63.74,80.07,62.76,79.14z"/>
			<path class="st43" d="M69.02,72.51c-0.98-0.93-2.53-0.89-3.45,0.09c-0.92,0.98-0.88,2.52,0.11,3.45
				c0.98,0.93,2.53,0.89,3.45-0.09C70.05,74.98,70,73.44,69.02,72.51z"/>
			<path class="st43" d="M75.29,65.89c-0.98-0.93-2.52-0.89-3.45,0.08c-0.92,0.98-0.88,2.52,0.11,3.45
				c0.98,0.93,2.52,0.89,3.44-0.09C76.32,68.36,76.27,66.82,75.29,65.89z"/>
			<path class="st43" d="M81.55,59.27c-0.98-0.93-2.52-0.89-3.45,0.09c-0.92,0.97-0.88,2.52,0.11,3.44
				c0.98,0.93,2.52,0.89,3.45-0.09C82.58,61.74,82.53,60.2,81.55,59.27z"/>
			<path class="st43" d="M87.82,52.65c-0.98-0.93-2.52-0.89-3.45,0.08c-0.92,0.98-0.87,2.52,0.11,3.45
				c0.98,0.93,2.52,0.89,3.44-0.09C88.84,55.12,88.8,53.58,87.82,52.65z"/>
			<path class="st43" d="M94.09,46.03c-0.98-0.93-2.53-0.89-3.45,0.09c-0.93,0.98-0.88,2.52,0.11,3.44
				c0.98,0.93,2.52,0.89,3.44-0.09C95.11,48.5,95.06,46.95,94.09,46.03z"/>
		</g>
		<g>
			
				<linearGradient id="SVGID_39_" gradientUnits="userSpaceOnUse" x1="787.58" y1="-533.144" x2="787.58" y2="-555.2115" gradientTransform="matrix(0.6872 -0.7264 0.7151 0.6765 -65.8397 980.4935)">
				<stop  offset="0" style="stop-color:#6C6450"/>
				<stop  offset="0.293" style="stop-color:#998F72"/>
				<stop  offset="0.5055" style="stop-color:#B6AA87"/>
			</linearGradient>
			<path class="st44" d="M93.83,46.75c-1.27-4.48-4.51-8.2-8.23-10.88c-1.61-1.17-3.42-2.21-5.39-2.62
				c-0.67-0.15-1.48-0.31-2.13-0.01c-0.98,0.45-1.32,1.72-0.7,2.59c0.5,0.7,1.14,0.61,1.87,0.74c0.79,0.14,1.55,0.5,2.26,0.86
				c2.08,1.07,3.93,2.57,5.5,4.31c1.55,1.72,2.87,3.74,3.49,5.99C91.31,49.73,94.46,48.97,93.83,46.75
				C92.84,43.28,93.83,46.75,93.83,46.75z"/>
			
				<linearGradient id="SVGID_40_" gradientUnits="userSpaceOnUse" x1="778.1" y1="-533.4902" x2="778.1" y2="-555.5383" gradientTransform="matrix(0.6872 -0.7264 0.7158 0.6772 -65.2099 981.0891)">
				<stop  offset="0" style="stop-color:#6C6450"/>
				<stop  offset="0.293" style="stop-color:#998F72"/>
				<stop  offset="0.5055" style="stop-color:#B6AA87"/>
			</linearGradient>
			<path class="st45" d="M87.45,53.22c-1.81-4.14-5.12-7.64-8.68-10.35c-1.6-1.22-3.41-2.48-5.38-3c-0.82-0.21-1.67-0.21-2.25,0.53
				c-0.52,0.66-0.49,1.61,0.07,2.23c0.47,0.52,1.16,0.52,1.77,0.77c0.91,0.37,1.75,0.89,2.56,1.43c1.84,1.25,3.54,2.74,5.04,4.39
				c1.47,1.61,2.82,3.4,3.69,5.42C85.35,56.51,88.37,55.32,87.45,53.22C86.12,50.18,87.45,53.22,87.45,53.22z"/>
			
				<linearGradient id="SVGID_41_" gradientUnits="userSpaceOnUse" x1="768.6142" y1="-531.4418" x2="768.6142" y2="-553.4171" gradientTransform="matrix(0.6872 -0.7264 0.7182 0.6795 -65.4072 980.9028)">
				<stop  offset="0" style="stop-color:#6C6450"/>
				<stop  offset="0.293" style="stop-color:#998F72"/>
				<stop  offset="0.5055" style="stop-color:#B6AA87"/>
			</linearGradient>
			<path class="st46" d="M81.05,59.69c-2.52-3.96-6.03-7.36-9.66-10.29c-1.35-1.07-2.77-2.17-4.36-2.86
				c-1.63-0.7-3.39,1.16-2.16,2.66c0.37,0.45,0.98,0.59,1.46,0.89c0.7,0.42,1.37,0.9,2.02,1.39c1.98,1.48,3.82,3.14,5.55,4.92
				c1.55,1.59,3.03,3.29,4.22,5.18C79.46,63.28,82.26,61.63,81.05,59.69C79.41,57.11,81.05,59.69,81.05,59.69z"/>
			
				<linearGradient id="SVGID_42_" gradientUnits="userSpaceOnUse" x1="759.1142" y1="-531.0815" x2="759.1142" y2="-553.051" gradientTransform="matrix(0.6872 -0.7264 0.7184 0.6797 -65.5592 980.7589)">
				<stop  offset="0" style="stop-color:#6C6450"/>
				<stop  offset="0.293" style="stop-color:#998F72"/>
				<stop  offset="0.5055" style="stop-color:#B6AA87"/>
			</linearGradient>
			<path class="st47" d="M74.57,66.15c-3.08-3.45-6.46-6.64-9.9-9.71c-1.21-1.08-2.42-2.19-3.74-3.12c-1.55-0.93-3.55,0.78-2.44,2.4
				c0.33,0.48,0.95,0.82,1.39,1.19c0.7,0.57,1.38,1.16,2.05,1.75c1.91,1.69,3.77,3.43,5.59,5.21c0.85,0.83,1.68,1.66,2.51,2.52
				c0.71,0.74,1.37,1.68,2.18,2.31C73.81,69.94,75.94,67.68,74.57,66.15C72.68,64.03,74.57,66.15,74.57,66.15z"/>
			
				<linearGradient id="SVGID_43_" gradientUnits="userSpaceOnUse" x1="749.6175" y1="-531.9446" x2="749.6175" y2="-553.9415" gradientTransform="matrix(0.6872 -0.7264 0.7174 0.6787 -65.4579 980.8547)">
				<stop  offset="0" style="stop-color:#6C6450"/>
				<stop  offset="0.293" style="stop-color:#998F72"/>
				<stop  offset="0.5055" style="stop-color:#B6AA87"/>
			</linearGradient>
			<path class="st48" d="M68.3,75.07c1.29-1.61-0.77-2.84-1.81-3.71c-1.58-1.33-3.11-2.72-4.62-4.12c-2.34-2.19-4.86-4.41-6.86-6.92
				c-1.38-1.75-4.11,0.42-2.73,2.17c1.11,1.64,2.82,3.06,4.22,4.44c2.01,1.98,4.07,3.91,6.19,5.77
				C63.87,73.72,66.69,77.13,68.3,75.07C68.9,74.32,68.3,75.07,68.3,75.07z"/>
			
				<linearGradient id="SVGID_44_" gradientUnits="userSpaceOnUse" x1="743.3948" y1="-533.4948" x2="743.3998" y2="-555.5664" gradientTransform="matrix(0.7419 -0.7837 0.7152 0.6763 -108.4003 1025.603)">
				<stop  offset="0" style="stop-color:#6C6450"/>
				<stop  offset="0.293" style="stop-color:#998F72"/>
				<stop  offset="0.5055" style="stop-color:#B6AA87"/>
			</linearGradient>
			<path class="st49" d="M62.19,81.43c1.21-2.09-1.76-3.05-2.96-3.88c-1.92-1.33-3.7-2.86-5.36-4.49c-1.48-1.44-2.9-2.99-4.1-4.68
				c-0.76-1.08-1.51-3.03-3.28-1.79c-3.05,2.12,3.23,7.64,4.48,8.88c1.69,1.7,3.5,3.28,5.45,4.69
				C57.67,81.06,60.75,83.86,62.19,81.43C62.7,80.53,62.19,81.43,62.19,81.43z"/>
			
				<linearGradient id="SVGID_45_" gradientUnits="userSpaceOnUse" x1="735.4587" y1="-534.1586" x2="735.4576" y2="-556.242" gradientTransform="matrix(0.7752 -0.8194 0.7147 0.6763 -133.2753 1052.9127)">
				<stop  offset="0" style="stop-color:#6C6450"/>
				<stop  offset="0.293" style="stop-color:#998F72"/>
				<stop  offset="0.5055" style="stop-color:#B6AA87"/>
			</linearGradient>
			<path class="st50" d="M56.08,87.76c0.97-2.28-2.19-2.72-3.49-3.43c-2.01-1.09-3.81-2.53-5.41-4.14
				c-1.45-1.47-2.89-3.13-3.79-5.05c-0.23-0.5-0.28-1.13-0.55-1.6c-0.47-0.83-1.6-1.03-2.49-0.44c-3.54,2.32,3.04,8.89,4.44,10.25
				C46.2,84.72,54.31,91.92,56.08,87.76C56.5,86.78,56.08,87.76,56.08,87.76z"/>
			
				<linearGradient id="SVGID_46_" gradientUnits="userSpaceOnUse" x1="724.9489" y1="-534.3436" x2="724.9459" y2="-556.4425" gradientTransform="matrix(0.7573 -0.8007 0.714 0.6757 -118.7628 1037.7333)">
				<stop  offset="0" style="stop-color:#6C6450"/>
				<stop  offset="0.293" style="stop-color:#998F72"/>
				<stop  offset="0.5055" style="stop-color:#B6AA87"/>
			</linearGradient>
			<path class="st51" d="M49.99,94.46c0.64-2.32-2.62-2.35-3.98-2.94c-2.21-0.96-4.16-2.45-5.78-4.19c-1.33-1.44-2.6-3.19-3.19-5.13
				c-0.18-0.61-0.04-1.3-0.41-1.82c-0.61-0.88-1.97-0.9-2.78-0.04c-1.35,1.43-0.11,4.08,0.55,5.36c1.04,2.04,2.54,3.8,4.14,5.37
				C39.94,92.4,48.76,98.96,49.99,94.46C50.27,93.47,49.99,94.46,49.99,94.46z"/>
			<g>
				<g>
					
						<linearGradient id="SVGID_47_" gradientUnits="userSpaceOnUse" x1="-1187.2765" y1="-132.1056" x2="-1187.2966" y2="-154.1739" gradientTransform="matrix(-0.6866 0.727 0.727 0.6866 -624.3143 1001.3937)">
						<stop  offset="5.494510e-03" style="stop-color:#B6AA87"/>
						<stop  offset="0.3352" style="stop-color:#FCFCFD"/>
						<stop  offset="0.8022" style="stop-color:#FCFCFD"/>
						<stop  offset="0.8355" style="stop-color:#F9F8F6"/>
						<stop  offset="0.8828" style="stop-color:#F2EEE4"/>
						<stop  offset="0.9383" style="stop-color:#E5DDC5"/>
						<stop  offset="1" style="stop-color:#D4C69B"/>
					</linearGradient>
					<path class="st52" d="M94.52,46.59c-1.32-4.53-4.61-8.3-8.38-11.03c-1.63-1.19-3.46-2.26-5.46-2.69
						c-0.67-0.14-1.49-0.32-2.15-0.02c-0.99,0.45-1.32,1.72-0.69,2.61c0.5,0.71,1.15,0.63,1.89,0.76c0.79,0.14,1.56,0.52,2.28,0.89
						c2.12,1.1,3.99,2.62,5.58,4.39c1.57,1.74,2.92,3.79,3.57,6.06C92.01,49.57,95.17,48.83,94.52,46.59
						C93.5,43.08,94.52,46.59,94.52,46.59z"/>
				</g>
				<g>
					
						<linearGradient id="SVGID_48_" gradientUnits="userSpaceOnUse" x1="-1177.7996" y1="-132.1267" x2="-1177.8196" y2="-154.1741" gradientTransform="matrix(-0.6866 0.727 0.727 0.6866 -624.3143 1001.3937)">
						<stop  offset="5.494510e-03" style="stop-color:#B6AA87"/>
						<stop  offset="0.3352" style="stop-color:#FCFCFD"/>
						<stop  offset="0.8022" style="stop-color:#FCFCFD"/>
						<stop  offset="0.8355" style="stop-color:#F9F8F6"/>
						<stop  offset="0.8828" style="stop-color:#F2EEE4"/>
						<stop  offset="0.9383" style="stop-color:#E5DDC5"/>
						<stop  offset="1" style="stop-color:#D4C69B"/>
					</linearGradient>
					<path class="st53" d="M88.14,53.05c-1.86-4.18-5.22-7.74-8.82-10.49c-1.62-1.24-3.45-2.53-5.45-3.06
						c-0.83-0.23-1.69-0.23-2.26,0.51c-0.52,0.66-0.48,1.62,0.08,2.25c0.48,0.53,1.17,0.53,1.78,0.79c0.92,0.38,1.77,0.9,2.59,1.46
						c1.87,1.27,3.59,2.79,5.12,4.46c1.49,1.63,2.86,3.45,3.75,5.48C86.04,56.35,89.08,55.17,88.14,53.05
						C86.77,49.98,88.14,53.05,88.14,53.05z"/>
				</g>
				<g>
					
						<linearGradient id="SVGID_49_" gradientUnits="userSpaceOnUse" x1="-1168.3093" y1="-132.1538" x2="-1168.3293" y2="-154.1281" gradientTransform="matrix(-0.6866 0.727 0.727 0.6866 -624.3143 1001.3937)">
						<stop  offset="5.494510e-03" style="stop-color:#B6AA87"/>
						<stop  offset="0.3352" style="stop-color:#FCFCFD"/>
						<stop  offset="0.8022" style="stop-color:#FCFCFD"/>
						<stop  offset="0.8355" style="stop-color:#F9F8F6"/>
						<stop  offset="0.8828" style="stop-color:#F2EEE4"/>
						<stop  offset="0.9383" style="stop-color:#E5DDC5"/>
						<stop  offset="1" style="stop-color:#D4C69B"/>
					</linearGradient>
					<path class="st54" d="M81.7,59.49c-2.55-4-6.1-7.43-9.78-10.4c-1.36-1.09-2.8-2.21-4.41-2.91c-1.64-0.71-3.4,1.15-2.16,2.66
						c0.38,0.45,0.99,0.6,1.48,0.9c0.71,0.42,1.38,0.9,2.04,1.41c2,1.5,3.86,3.18,5.6,4.97c1.57,1.61,3.07,3.33,4.28,5.23
						C80.13,63.09,82.94,61.44,81.7,59.49C80.04,56.89,81.7,59.49,81.7,59.49z"/>
				</g>
				<g>
					
						<linearGradient id="SVGID_50_" gradientUnits="userSpaceOnUse" x1="-1158.8098" y1="-132.1708" x2="-1158.8298" y2="-154.1371" gradientTransform="matrix(-0.6866 0.727 0.727 0.6866 -624.3143 1001.3937)">
						<stop  offset="5.494510e-03" style="stop-color:#B6AA87"/>
						<stop  offset="0.3352" style="stop-color:#FCFCFD"/>
						<stop  offset="0.8022" style="stop-color:#FCFCFD"/>
						<stop  offset="0.8355" style="stop-color:#F9F8F6"/>
						<stop  offset="0.8828" style="stop-color:#F2EEE4"/>
						<stop  offset="0.9383" style="stop-color:#E5DDC5"/>
						<stop  offset="1" style="stop-color:#D4C69B"/>
					</linearGradient>
					<path class="st55" d="M75.22,65.95c-3.11-3.48-6.53-6.71-10.02-9.82c-1.22-1.09-2.44-2.21-3.78-3.16
						c-1.57-0.94-3.57,0.76-2.45,2.41c0.33,0.48,0.95,0.83,1.4,1.19c0.7,0.58,1.39,1.17,2.07,1.78c1.93,1.71,3.81,3.47,5.65,5.27
						c0.86,0.83,1.7,1.68,2.53,2.54c0.72,0.74,1.39,1.7,2.2,2.33C74.48,69.76,76.6,67.5,75.22,65.95
						C73.3,63.81,75.22,65.95,75.22,65.95z"/>
				</g>
				<g>
					
						<linearGradient id="SVGID_51_" gradientUnits="userSpaceOnUse" x1="-1149.3137" y1="-132.1213" x2="-1149.3337" y2="-154.1194" gradientTransform="matrix(-0.6866 0.727 0.727 0.6866 -624.3143 1001.3937)">
						<stop  offset="5.494510e-03" style="stop-color:#B6AA87"/>
						<stop  offset="0.3352" style="stop-color:#FCFCFD"/>
						<stop  offset="0.8022" style="stop-color:#FCFCFD"/>
						<stop  offset="0.8355" style="stop-color:#F9F8F6"/>
						<stop  offset="0.8828" style="stop-color:#F2EEE4"/>
						<stop  offset="0.9383" style="stop-color:#E5DDC5"/>
						<stop  offset="1" style="stop-color:#D4C69B"/>
					</linearGradient>
					<path class="st56" d="M68.98,74.88c1.28-1.6-0.8-2.86-1.85-3.75c-1.6-1.34-3.15-2.74-4.68-4.17c-2.37-2.21-4.92-4.47-6.95-7
						c-1.41-1.77-4.14,0.4-2.73,2.16c1.13,1.66,2.86,3.1,4.28,4.5c2.04,2,4.13,3.95,6.27,5.84C64.5,73.5,67.37,76.95,68.98,74.88
						C69.58,74.13,68.98,74.88,68.98,74.88z"/>
				</g>
				<g>
					
						<linearGradient id="SVGID_52_" gradientUnits="userSpaceOnUse" x1="-1139.7819" y1="-132.1109" x2="-1139.8019" y2="-154.1791" gradientTransform="matrix(-0.6866 0.727 0.727 0.6866 -624.3143 1001.3937)">
						<stop  offset="5.494510e-03" style="stop-color:#B6AA87"/>
						<stop  offset="0.3352" style="stop-color:#FCFCFD"/>
						<stop  offset="0.8022" style="stop-color:#FCFCFD"/>
						<stop  offset="0.8355" style="stop-color:#F9F8F6"/>
						<stop  offset="0.8828" style="stop-color:#F2EEE4"/>
						<stop  offset="0.9383" style="stop-color:#E5DDC5"/>
						<stop  offset="1" style="stop-color:#D4C69B"/>
					</linearGradient>
					<path class="st57" d="M62.83,81.33c1.1-1.97-1.84-3.04-3.05-3.89c-1.93-1.38-3.72-2.94-5.42-4.59c-1.5-1.46-2.96-3.02-4.2-4.72
						c-0.79-1.08-1.61-3-3.28-1.88c-2.87,1.92,3.49,7.55,4.75,8.8c1.73,1.72,3.56,3.34,5.52,4.8
						C58.41,80.77,61.54,83.63,62.83,81.33C63.29,80.49,62.83,81.33,62.83,81.33z"/>
				</g>
				<g>
					
						<linearGradient id="SVGID_53_" gradientUnits="userSpaceOnUse" x1="-1130.3296" y1="-132.1004" x2="-1130.3497" y2="-154.1819" gradientTransform="matrix(-0.6866 0.727 0.727 0.6866 -624.3143 1001.3937)">
						<stop  offset="5.494510e-03" style="stop-color:#B6AA87"/>
						<stop  offset="0.3352" style="stop-color:#FCFCFD"/>
						<stop  offset="0.8022" style="stop-color:#FCFCFD"/>
						<stop  offset="0.8355" style="stop-color:#F9F8F6"/>
						<stop  offset="0.8828" style="stop-color:#F2EEE4"/>
						<stop  offset="0.9383" style="stop-color:#E5DDC5"/>
						<stop  offset="1" style="stop-color:#D4C69B"/>
					</linearGradient>
					<path class="st58" d="M56.63,87.77c0.78-2.1-2.27-2.72-3.55-3.47c-2-1.17-3.8-2.65-5.43-4.28c-1.49-1.49-2.96-3.15-3.95-5.03
						c-0.26-0.49-0.35-1.09-0.63-1.55c-0.5-0.81-1.59-1.07-2.4-0.58c-3.23,1.97,3.47,8.62,4.9,10.01
						C46.99,84.25,55.2,91.6,56.63,87.77C56.97,86.87,56.63,87.77,56.63,87.77z"/>
				</g>
				<g>
					
						<linearGradient id="SVGID_54_" gradientUnits="userSpaceOnUse" x1="-1120.8394" y1="-132.0732" x2="-1120.8595" y2="-154.175" gradientTransform="matrix(-0.6866 0.727 0.727 0.6866 -624.3134 1001.3947)">
						<stop  offset="5.494510e-03" style="stop-color:#B6AA87"/>
						<stop  offset="0.3352" style="stop-color:#FCFCFD"/>
						<stop  offset="0.8022" style="stop-color:#FCFCFD"/>
						<stop  offset="0.8355" style="stop-color:#F9F8F6"/>
						<stop  offset="0.8828" style="stop-color:#F2EEE4"/>
						<stop  offset="0.9383" style="stop-color:#E5DDC5"/>
						<stop  offset="1" style="stop-color:#D4C69B"/>
					</linearGradient>
					<path class="st59" d="M50.38,94.23c0.5-2.19-2.66-2.4-4.01-3.05c-2.18-1.03-4.15-2.57-5.81-4.33c-1.36-1.45-2.69-3.2-3.36-5.09
						c-0.21-0.59-0.12-1.25-0.5-1.77c-0.63-0.88-1.95-0.97-2.69-0.19c-1.22,1.3,0.12,3.9,0.83,5.17c1.12,2.01,2.66,3.78,4.3,5.38
						C40.57,91.69,49.44,98.47,50.38,94.23C50.59,93.29,50.38,94.23,50.38,94.23z"/>
				</g>
			</g>
		</g>
		<g>
			
				<linearGradient id="SVGID_55_" gradientUnits="userSpaceOnUse" x1="809.7925" y1="-535.4599" x2="809.8427" y2="-538.3348" gradientTransform="matrix(0.6872 -0.7264 0.7264 0.6872 -65.5113 980.8044)">
				<stop  offset="0" style="stop-color:#6C6450"/>
				<stop  offset="0.1389" style="stop-color:#7B725B"/>
				<stop  offset="0.4035" style="stop-color:#A19677"/>
				<stop  offset="0.533" style="stop-color:#B6AA87"/>
				<stop  offset="0.6676" style="stop-color:#B8AC8A"/>
				<stop  offset="0.7619" style="stop-color:#BEB393"/>
				<stop  offset="0.8438" style="stop-color:#C9BFA2"/>
				<stop  offset="0.9186" style="stop-color:#D8CFB8"/>
				<stop  offset="0.9881" style="stop-color:#EBE5D4"/>
				<stop  offset="1" style="stop-color:#EFE9DA"/>
			</linearGradient>
			<path class="st60" d="M103.09,19.53c-1.92,1.85-4.02,3.89-6.26,6.08c0.88,0.83,1.3,1.23,2.23,2.1c2.23-2.2,4.31-4.25,6.22-6.12
				C104.37,20.74,103.93,20.33,103.09,19.53z"/>
			
				<linearGradient id="SVGID_56_" gradientUnits="userSpaceOnUse" x1="809.818" y1="-534.9177" x2="809.818" y2="-536.7382" gradientTransform="matrix(0.6872 -0.7264 0.7264 0.6872 -65.5113 980.8044)">
				<stop  offset="0" style="stop-color:#FFFFFF"/>
				<stop  offset="0.2307" style="stop-color:#FEFDFC"/>
				<stop  offset="0.4243" style="stop-color:#F9F7F1"/>
				<stop  offset="0.6045" style="stop-color:#F2EDE0"/>
				<stop  offset="0.7765" style="stop-color:#E7DFC7"/>
				<stop  offset="0.9413" style="stop-color:#DACDA8"/>
				<stop  offset="1" style="stop-color:#D4C69B"/>
			</linearGradient>
			<path class="st61" d="M104.26,20.64c-1.93,1.94-3.98,4.01-6.14,6.2c0.33,0.31,0.7,0.66,1.2,1.13c2.2-2.23,4.25-4.31,6.12-6.22
				C104.95,21.29,104.6,20.95,104.26,20.64z"/>
		</g>
		<g>
			
				<linearGradient id="SVGID_57_" gradientUnits="userSpaceOnUse" x1="1055.5997" y1="-535.4598" x2="1055.6499" y2="-538.3363" gradientTransform="matrix(-0.6872 0.7264 0.7264 0.6872 1141.0826 -294.6006)">
				<stop  offset="0" style="stop-color:#6C6450"/>
				<stop  offset="0.1389" style="stop-color:#7B725B"/>
				<stop  offset="0.4035" style="stop-color:#A19677"/>
				<stop  offset="0.533" style="stop-color:#B6AA87"/>
				<stop  offset="0.6676" style="stop-color:#B8AC8A"/>
				<stop  offset="0.7619" style="stop-color:#BEB393"/>
				<stop  offset="0.8438" style="stop-color:#C9BFA2"/>
				<stop  offset="0.9186" style="stop-color:#D8CFB8"/>
				<stop  offset="0.9881" style="stop-color:#EBE5D4"/>
				<stop  offset="1" style="stop-color:#EFE9DA"/>
			</linearGradient>
			<path class="st62" d="M21.71,105.56c1.75-2.02,3.66-4.23,5.73-6.59c0.87,0.83,1.3,1.23,2.22,2.11c-2.08,2.35-4,4.54-5.77,6.55
				C22.98,106.77,22.54,106.35,21.71,105.56z"/>
			
				<linearGradient id="SVGID_58_" gradientUnits="userSpaceOnUse" x1="1055.6237" y1="-534.9159" x2="1055.6237" y2="-536.7382" gradientTransform="matrix(-0.6872 0.7264 0.7264 0.6872 1141.0826 -294.6006)">
				<stop  offset="0" style="stop-color:#FFFFFF"/>
				<stop  offset="0.2307" style="stop-color:#FEFDFC"/>
				<stop  offset="0.4243" style="stop-color:#F9F7F1"/>
				<stop  offset="0.6045" style="stop-color:#F2EDE0"/>
				<stop  offset="0.7765" style="stop-color:#E7DFC7"/>
				<stop  offset="0.9413" style="stop-color:#DACDA8"/>
				<stop  offset="1" style="stop-color:#D4C69B"/>
			</linearGradient>
			<path class="st63" d="M22.87,106.67c1.83-2.03,3.79-4.2,5.85-6.47c0.33,0.31,0.69,0.66,1.19,1.14c-2.11,2.32-4.07,4.48-5.86,6.45
				C23.56,107.32,23.21,106.98,22.87,106.67z"/>
		</g>
	</g>
</g>
</svg>
