<svg width="313" height="306" viewBox="0 0 313 306" fill="none" xmlns="http://www.w3.org/2000/svg">
<g clip-path="url(#clip0_1_2)">
<rect width="313" height="306" rx="43" fill="black"/>
<path d="M292.36 0H20.6402C9.24095 0 0 9.12569 0 20.3828V285.617C0 296.874 9.24095 306 20.6402 306H292.36C303.759 306 313 296.874 313 285.617V20.3828C313 9.12569 303.759 0 292.36 0Z" fill="black"/>
<path d="M211.752 73.8993L161.384 64.7186C155.717 63.6858 150.276 67.3847 149.23 72.9804L138.245 131.753C137.199 137.348 140.945 142.722 146.611 143.755L196.98 152.935C202.646 153.968 208.088 150.269 209.134 144.674L220.119 85.9013C221.165 80.3056 217.419 74.9321 211.752 73.8993Z" fill="#262626"/>
<path d="M200.002 88.1031L168.75 82.4068C167.066 82.0999 165.449 83.1991 165.138 84.862C164.828 86.5249 165.941 88.1217 167.625 88.4286L198.877 94.1249C200.561 94.4319 202.178 93.3327 202.488 91.6698C202.799 90.0069 201.686 88.4101 200.002 88.1031Z" fill="black"/>
<path d="M197.328 102.405L166.076 96.7088C164.392 96.4018 162.775 97.5011 162.464 99.1639C162.154 100.827 163.267 102.424 164.951 102.731L196.203 108.427C197.886 108.734 199.503 107.635 199.814 105.972C200.125 104.309 199.012 102.712 197.328 102.405Z" fill="black"/>
<path d="M192.826 126.493L161.574 120.796C159.89 120.489 158.273 121.589 157.962 123.251C157.652 124.914 158.765 126.511 160.449 126.818L191.701 132.514C193.384 132.821 195.002 131.722 195.312 130.059C195.623 128.396 194.51 126.799 192.826 126.493Z" fill="#75BC3C"/>
<path d="M167.215 84.4623L116.846 75.2816C111.179 74.2487 105.738 77.9477 104.692 83.5433L93.707 142.316C92.6611 147.911 96.4068 153.285 102.073 154.318L152.442 163.498C158.108 164.531 163.55 160.832 164.596 155.237L175.581 96.4643C176.627 90.8686 172.881 85.4951 167.215 84.4623Z" fill="#262626"/>
<path d="M155.464 98.6663L124.212 92.97C122.528 92.6631 120.911 93.7623 120.601 95.4252C120.29 97.088 121.403 98.6849 123.087 98.9918L154.339 104.688C156.023 104.995 157.64 103.896 157.951 102.233C158.261 100.57 157.148 98.9732 155.464 98.6663Z" fill="black"/>
<path d="M152.791 112.968L121.539 107.271C119.855 106.965 118.238 108.064 117.928 109.727C117.617 111.389 118.73 112.986 120.414 113.293L151.666 118.99C153.35 119.296 154.967 118.197 155.278 116.534C155.588 114.872 154.475 113.275 152.791 112.968Z" fill="black"/>
<path d="M148.288 137.055L117.036 131.359C115.352 131.052 113.735 132.151 113.425 133.814C113.114 135.477 114.227 137.074 115.911 137.381L147.163 143.077C148.847 143.384 150.464 142.285 150.775 140.622C151.085 138.959 149.972 137.362 148.288 137.055Z" fill="#75BC3C"/>
</g>
<defs>
<clipPath id="clip0_1_2">
<rect width="313" height="306" rx="43" fill="white"/>
</clipPath>
</defs>
</svg>
